<mxfile host="app.diagrams.net" modified="2023-05-12T08:27:10.544Z" agent="Mozilla/5.0 (Windows NT 10.0; Win64; x64) AppleWebKit/537.36 (KHTML, like Gecko) Chrome/113.0.0.0 Safari/537.36" etag="oNtPmS0YWsFDDh5ndaCG" version="21.2.9" type="github">
  <diagram name="Page-1" id="c6Tn2aXtACUbhyKwXEwi">
    <mxGraphModel dx="1434" dy="788" grid="1" gridSize="10" guides="1" tooltips="1" connect="1" arrows="1" fold="1" page="1" pageScale="1" pageWidth="850" pageHeight="1100" math="0" shadow="0">
      <root>
        <mxCell id="0" />
        <mxCell id="1" parent="0" />
        <mxCell id="Xy0spjIBbxIXqmK404P5-2" value="" style="edgeStyle=orthogonalEdgeStyle;rounded=0;orthogonalLoop=1;jettySize=auto;html=1;entryX=1;entryY=0.5;entryDx=0;entryDy=0;" edge="1" parent="1" source="Xy0spjIBbxIXqmK404P5-3" target="Xy0spjIBbxIXqmK404P5-4">
          <mxGeometry relative="1" as="geometry">
            <Array as="points">
              <mxPoint x="577.5" y="473" />
              <mxPoint x="577.5" y="356" />
            </Array>
          </mxGeometry>
        </mxCell>
        <mxCell id="Xy0spjIBbxIXqmK404P5-3" value="B.1.1.529 (Omicron)" style="rounded=0;whiteSpace=wrap;html=1;fillColor=#fff2cc;strokeColor=#d6b656;fontStyle=1;fontSize=16;fontFamily=Helvetica;" vertex="1" parent="1">
          <mxGeometry x="590.5" y="458" width="184" height="30" as="geometry" />
        </mxCell>
        <mxCell id="Xy0spjIBbxIXqmK404P5-4" value="BA.1" style="rounded=0;whiteSpace=wrap;html=1;fontFamily=Helvetica;fontSize=14;" vertex="1" parent="1">
          <mxGeometry x="69.5" y="341" width="120" height="30" as="geometry" />
        </mxCell>
        <mxCell id="Xy0spjIBbxIXqmK404P5-5" value="BA.2" style="rounded=0;whiteSpace=wrap;html=1;fillColor=#fff2cc;strokeColor=#d6b656;fontStyle=1;fontSize=16;fontFamily=Helvetica;" vertex="1" parent="1">
          <mxGeometry x="367.5" y="549" width="120" height="30" as="geometry" />
        </mxCell>
        <mxCell id="Xy0spjIBbxIXqmK404P5-6" value="" style="endArrow=classic;html=1;rounded=0;entryX=0.5;entryY=0;entryDx=0;entryDy=0;exitX=0.5;exitY=1;exitDx=0;exitDy=0;fontFamily=Helvetica;" edge="1" parent="1" source="Xy0spjIBbxIXqmK404P5-3" target="Xy0spjIBbxIXqmK404P5-5">
          <mxGeometry width="50" height="50" relative="1" as="geometry">
            <mxPoint x="600.8333333333335" y="528" as="sourcePoint" />
            <mxPoint x="374.16666666666674" y="588" as="targetPoint" />
          </mxGeometry>
        </mxCell>
        <mxCell id="Xy0spjIBbxIXqmK404P5-7" value="" style="edgeStyle=orthogonalEdgeStyle;rounded=0;orthogonalLoop=1;jettySize=auto;html=1;fontFamily=Helvetica;fontSize=18;fontColor=#000000;" edge="1" parent="1" source="Xy0spjIBbxIXqmK404P5-9" target="Xy0spjIBbxIXqmK404P5-124">
          <mxGeometry relative="1" as="geometry" />
        </mxCell>
        <mxCell id="Xy0spjIBbxIXqmK404P5-8" value="" style="edgeStyle=orthogonalEdgeStyle;rounded=0;orthogonalLoop=1;jettySize=auto;html=1;fontFamily=Helvetica;" edge="1" parent="1" source="Xy0spjIBbxIXqmK404P5-9" target="Xy0spjIBbxIXqmK404P5-131">
          <mxGeometry relative="1" as="geometry" />
        </mxCell>
        <mxCell id="Xy0spjIBbxIXqmK404P5-9" value="BA.4" style="rounded=0;whiteSpace=wrap;html=1;fillColor=#ffe6cc;strokeColor=#d79b00;fontFamily=Helvetica;fontSize=14;" vertex="1" parent="1">
          <mxGeometry x="1617.5" y="452" width="120" height="30" as="geometry" />
        </mxCell>
        <mxCell id="Xy0spjIBbxIXqmK404P5-10" value="" style="endArrow=classic;html=1;rounded=0;startArrow=none;exitX=1;exitY=0.5;exitDx=0;exitDy=0;fontFamily=Helvetica;" edge="1" parent="1" source="Xy0spjIBbxIXqmK404P5-3" target="Xy0spjIBbxIXqmK404P5-9">
          <mxGeometry width="50" height="50" relative="1" as="geometry">
            <mxPoint x="677.5" y="518" as="sourcePoint" />
            <mxPoint x="497.5" y="588" as="targetPoint" />
          </mxGeometry>
        </mxCell>
        <mxCell id="Xy0spjIBbxIXqmK404P5-11" value="BA.5" style="rounded=0;whiteSpace=wrap;html=1;fillColor=#fff2cc;strokeColor=#d6b656;fontStyle=1;fontSize=16;fontFamily=Helvetica;" vertex="1" parent="1">
          <mxGeometry x="1427.5" y="523" width="120" height="30" as="geometry" />
        </mxCell>
        <mxCell id="Xy0spjIBbxIXqmK404P5-12" value="" style="endArrow=classic;html=1;rounded=0;entryX=0;entryY=0.5;entryDx=0;entryDy=0;exitX=0.75;exitY=1;exitDx=0;exitDy=0;fontFamily=Helvetica;" edge="1" parent="1" source="Xy0spjIBbxIXqmK404P5-3" target="Xy0spjIBbxIXqmK404P5-11">
          <mxGeometry width="50" height="50" relative="1" as="geometry">
            <mxPoint x="727.5" y="483" as="sourcePoint" />
            <mxPoint x="667.5" y="588" as="targetPoint" />
            <Array as="points">
              <mxPoint x="727.5" y="543" />
            </Array>
          </mxGeometry>
        </mxCell>
        <mxCell id="Xy0spjIBbxIXqmK404P5-13" value="" style="edgeStyle=orthogonalEdgeStyle;rounded=0;orthogonalLoop=1;jettySize=auto;html=1;fontSize=20;fontColor=#000000;" edge="1" parent="1" source="Xy0spjIBbxIXqmK404P5-14" target="Xy0spjIBbxIXqmK404P5-229">
          <mxGeometry relative="1" as="geometry" />
        </mxCell>
        <mxCell id="Xy0spjIBbxIXqmK404P5-14" value="BA.2.75" style="rounded=0;whiteSpace=wrap;html=1;fillColor=#e1d5e7;strokeColor=#9673a6;fontFamily=Helvetica;fontSize=14;" vertex="1" parent="1">
          <mxGeometry x="337.5" y="735" width="120" height="30" as="geometry" />
        </mxCell>
        <mxCell id="Xy0spjIBbxIXqmK404P5-15" value="" style="endArrow=classic;html=1;rounded=0;entryX=0.5;entryY=0;entryDx=0;entryDy=0;startArrow=none;exitX=0.25;exitY=1;exitDx=0;exitDy=0;fontFamily=Helvetica;" edge="1" parent="1" source="Xy0spjIBbxIXqmK404P5-5" target="Xy0spjIBbxIXqmK404P5-14">
          <mxGeometry width="50" height="50" relative="1" as="geometry">
            <mxPoint x="397.5" y="454.9999999999998" as="sourcePoint" />
            <mxPoint x="527.5" y="434" as="targetPoint" />
          </mxGeometry>
        </mxCell>
        <mxCell id="Xy0spjIBbxIXqmK404P5-16" value="BA.2.2" style="rounded=0;whiteSpace=wrap;html=1;fontStyle=1;fontSize=16;fillColor=#fff2cc;strokeColor=#d6b656;fontFamily=Helvetica;" vertex="1" parent="1">
          <mxGeometry x="69.5" y="549" width="120" height="30" as="geometry" />
        </mxCell>
        <mxCell id="Xy0spjIBbxIXqmK404P5-17" value="" style="endArrow=classic;html=1;rounded=0;entryX=1;entryY=0.5;entryDx=0;entryDy=0;exitX=0;exitY=0.5;exitDx=0;exitDy=0;fontFamily=Helvetica;" edge="1" parent="1" source="Xy0spjIBbxIXqmK404P5-5" target="Xy0spjIBbxIXqmK404P5-16">
          <mxGeometry width="50" height="50" relative="1" as="geometry">
            <mxPoint x="527.5" y="588" as="sourcePoint" />
            <mxPoint x="347.5" y="648" as="targetPoint" />
          </mxGeometry>
        </mxCell>
        <mxCell id="Xy0spjIBbxIXqmK404P5-18" value="BA.2.3" style="rounded=0;whiteSpace=wrap;html=1;fillColor=#e3c800;fontColor=#000000;strokeColor=#B09500;fontFamily=Helvetica;fontSize=14;" vertex="1" parent="1">
          <mxGeometry x="811.5" y="615" width="120" height="30" as="geometry" />
        </mxCell>
        <mxCell id="Xy0spjIBbxIXqmK404P5-19" value="" style="endArrow=classic;html=1;rounded=0;entryX=0.5;entryY=0;entryDx=0;entryDy=0;exitX=1;exitY=0.5;exitDx=0;exitDy=0;fontFamily=Helvetica;" edge="1" parent="1" source="Xy0spjIBbxIXqmK404P5-5" target="Xy0spjIBbxIXqmK404P5-18">
          <mxGeometry width="50" height="50" relative="1" as="geometry">
            <mxPoint x="517.5" y="578" as="sourcePoint" />
            <mxPoint x="437.5" y="658" as="targetPoint" />
          </mxGeometry>
        </mxCell>
        <mxCell id="Xy0spjIBbxIXqmK404P5-20" value="" style="edgeStyle=orthogonalEdgeStyle;rounded=0;orthogonalLoop=1;jettySize=auto;html=1;fontSize=16;fontFamily=Helvetica;" edge="1" parent="1" source="Xy0spjIBbxIXqmK404P5-22" target="Xy0spjIBbxIXqmK404P5-69">
          <mxGeometry relative="1" as="geometry" />
        </mxCell>
        <mxCell id="Xy0spjIBbxIXqmK404P5-21" value="" style="edgeStyle=orthogonalEdgeStyle;rounded=0;orthogonalLoop=1;jettySize=auto;html=1;" edge="1" parent="1" source="Xy0spjIBbxIXqmK404P5-22" target="Xy0spjIBbxIXqmK404P5-251">
          <mxGeometry relative="1" as="geometry" />
        </mxCell>
        <mxCell id="Xy0spjIBbxIXqmK404P5-22" value="BA.5.2" style="rounded=0;whiteSpace=wrap;html=1;fillColor=#dae8fc;strokeColor=#6c8ebf;fontFamily=Helvetica;fontSize=14;" vertex="1" parent="1">
          <mxGeometry x="1428.5" y="602" width="120" height="30" as="geometry" />
        </mxCell>
        <mxCell id="Xy0spjIBbxIXqmK404P5-23" value="BA.5.3" style="rounded=0;whiteSpace=wrap;html=1;fillColor=#d5e8d4;strokeColor=#82b366;fontFamily=Helvetica;fontSize=14;" vertex="1" parent="1">
          <mxGeometry x="1288.5" y="602" width="120" height="30" as="geometry" />
        </mxCell>
        <mxCell id="Xy0spjIBbxIXqmK404P5-24" value="" style="endArrow=classic;html=1;rounded=0;entryX=0.5;entryY=0;entryDx=0;entryDy=0;exitX=0.5;exitY=1;exitDx=0;exitDy=0;fontFamily=Helvetica;" edge="1" parent="1" source="Xy0spjIBbxIXqmK404P5-11" target="Xy0spjIBbxIXqmK404P5-22">
          <mxGeometry width="50" height="50" relative="1" as="geometry">
            <mxPoint x="787.5" y="559" as="sourcePoint" />
            <mxPoint x="1668.5" y="640" as="targetPoint" />
          </mxGeometry>
        </mxCell>
        <mxCell id="Xy0spjIBbxIXqmK404P5-25" value="BA.5.6" style="rounded=0;whiteSpace=wrap;html=1;fontFamily=Helvetica;fontSize=14;" vertex="1" parent="1">
          <mxGeometry x="1150.5" y="602" width="120" height="30" as="geometry" />
        </mxCell>
        <mxCell id="Xy0spjIBbxIXqmK404P5-26" value="" style="endArrow=classic;html=1;rounded=0;entryX=0.5;entryY=0;entryDx=0;entryDy=0;exitX=0.5;exitY=1;exitDx=0;exitDy=0;fontFamily=Helvetica;" edge="1" parent="1" source="Xy0spjIBbxIXqmK404P5-11" target="Xy0spjIBbxIXqmK404P5-25">
          <mxGeometry width="50" height="50" relative="1" as="geometry">
            <mxPoint x="711.5" y="569" as="sourcePoint" />
            <mxPoint x="651.5" y="639" as="targetPoint" />
          </mxGeometry>
        </mxCell>
        <mxCell id="Xy0spjIBbxIXqmK404P5-27" value="BA.5.3.1" style="rounded=0;whiteSpace=wrap;html=1;fillColor=#d5e8d4;strokeColor=#82b366;fontFamily=Helvetica;fontSize=14;" vertex="1" parent="1">
          <mxGeometry x="1288.5" y="667" width="120" height="30" as="geometry" />
        </mxCell>
        <mxCell id="Xy0spjIBbxIXqmK404P5-28" value="" style="endArrow=classic;html=1;rounded=0;entryX=0.5;entryY=0;entryDx=0;entryDy=0;exitX=0.5;exitY=1;exitDx=0;exitDy=0;fontFamily=Helvetica;" edge="1" parent="1" source="Xy0spjIBbxIXqmK404P5-23" target="Xy0spjIBbxIXqmK404P5-27">
          <mxGeometry width="50" height="50" relative="1" as="geometry">
            <mxPoint x="1418.5" y="542" as="sourcePoint" />
            <mxPoint x="1358.5" y="612" as="targetPoint" />
          </mxGeometry>
        </mxCell>
        <mxCell id="Xy0spjIBbxIXqmK404P5-29" value="BE.1" style="rounded=0;whiteSpace=wrap;html=1;fillColor=#d5e8d4;strokeColor=#82b366;fontFamily=Helvetica;fontSize=14;" vertex="1" parent="1">
          <mxGeometry x="1288.5" y="727" width="120" height="30" as="geometry" />
        </mxCell>
        <mxCell id="Xy0spjIBbxIXqmK404P5-30" value="" style="endArrow=classic;html=1;rounded=0;entryX=0.5;entryY=0;entryDx=0;entryDy=0;exitX=0.5;exitY=1;exitDx=0;exitDy=0;fontFamily=Helvetica;" edge="1" parent="1" source="Xy0spjIBbxIXqmK404P5-27" target="Xy0spjIBbxIXqmK404P5-29">
          <mxGeometry width="50" height="50" relative="1" as="geometry">
            <mxPoint x="1358.5" y="617" as="sourcePoint" />
            <mxPoint x="1278.5" y="777" as="targetPoint" />
          </mxGeometry>
        </mxCell>
        <mxCell id="Xy0spjIBbxIXqmK404P5-31" value="BE.1.1" style="rounded=0;whiteSpace=wrap;html=1;fillColor=#d5e8d4;strokeColor=#82b366;fontFamily=Helvetica;fontSize=14;" vertex="1" parent="1">
          <mxGeometry x="1288.5" y="782" width="120" height="30" as="geometry" />
        </mxCell>
        <mxCell id="Xy0spjIBbxIXqmK404P5-32" value="" style="endArrow=classic;html=1;rounded=0;entryX=0.5;entryY=0;entryDx=0;entryDy=0;exitX=0.5;exitY=1;exitDx=0;exitDy=0;fontFamily=Helvetica;" edge="1" parent="1" source="Xy0spjIBbxIXqmK404P5-29" target="Xy0spjIBbxIXqmK404P5-31">
          <mxGeometry width="50" height="50" relative="1" as="geometry">
            <mxPoint x="1300.5" y="807" as="sourcePoint" />
            <mxPoint x="1310.5" y="787" as="targetPoint" />
          </mxGeometry>
        </mxCell>
        <mxCell id="Xy0spjIBbxIXqmK404P5-33" value="BE.1.1.1" style="rounded=0;whiteSpace=wrap;html=1;fillColor=#d5e8d4;strokeColor=#82b366;fontFamily=Helvetica;fontSize=14;" vertex="1" parent="1">
          <mxGeometry x="1288.5" y="834" width="120" height="30" as="geometry" />
        </mxCell>
        <object label="" Spike="K444T" id="Xy0spjIBbxIXqmK404P5-34">
          <mxCell style="endArrow=classic;html=1;rounded=0;entryX=0.5;entryY=0;entryDx=0;entryDy=0;exitX=0.5;exitY=1;exitDx=0;exitDy=0;fontFamily=Helvetica;fontSize=13;" edge="1" parent="1" source="Xy0spjIBbxIXqmK404P5-31" target="Xy0spjIBbxIXqmK404P5-33">
            <mxGeometry width="50" height="50" relative="1" as="geometry">
              <mxPoint x="1288.5" y="817" as="sourcePoint" />
              <mxPoint x="1248.5" y="887" as="targetPoint" />
            </mxGeometry>
          </mxCell>
        </object>
        <mxCell id="Xy0spjIBbxIXqmK404P5-35" value="" style="edgeStyle=orthogonalEdgeStyle;rounded=0;orthogonalLoop=1;jettySize=auto;html=1;entryX=0;entryY=0.5;entryDx=0;entryDy=0;fontSize=13;exitX=0.5;exitY=1;exitDx=0;exitDy=0;" edge="1" parent="1" source="Xy0spjIBbxIXqmK404P5-36" target="Xy0spjIBbxIXqmK404P5-151">
          <mxGeometry relative="1" as="geometry">
            <mxPoint x="1490.5588235294117" y="968.9999999999998" as="targetPoint" />
          </mxGeometry>
        </mxCell>
        <mxCell id="Xy0spjIBbxIXqmK404P5-36" value="BQ.1" style="rounded=0;whiteSpace=wrap;html=1;fillColor=#fff2cc;strokeColor=#d6b656;fontStyle=1;fontSize=16;fontFamily=Helvetica;" vertex="1" parent="1">
          <mxGeometry x="1288.5" y="886" width="120" height="30" as="geometry" />
        </mxCell>
        <mxCell id="Xy0spjIBbxIXqmK404P5-37" value="" style="endArrow=classic;html=1;rounded=0;entryX=0.5;entryY=0;entryDx=0;entryDy=0;exitX=0.5;exitY=1;exitDx=0;exitDy=0;fontFamily=Helvetica;fontSize=13;" edge="1" parent="1" source="Xy0spjIBbxIXqmK404P5-33" target="Xy0spjIBbxIXqmK404P5-36">
          <mxGeometry width="50" height="50" relative="1" as="geometry">
            <mxPoint x="1248.5" y="919" as="sourcePoint" />
            <mxPoint x="1208.5" y="989" as="targetPoint" />
          </mxGeometry>
        </mxCell>
        <mxCell id="Xy0spjIBbxIXqmK404P5-38" value="" style="edgeStyle=orthogonalEdgeStyle;rounded=0;orthogonalLoop=1;jettySize=auto;html=1;fontSize=13;entryX=0;entryY=0.5;entryDx=0;entryDy=0;exitX=1;exitY=0.5;exitDx=0;exitDy=0;" edge="1" parent="1" source="Xy0spjIBbxIXqmK404P5-40" target="Xy0spjIBbxIXqmK404P5-153">
          <mxGeometry relative="1" as="geometry">
            <mxPoint x="1348.566666666667" y="963" as="targetPoint" />
          </mxGeometry>
        </mxCell>
        <mxCell id="Xy0spjIBbxIXqmK404P5-39" value="" style="edgeStyle=orthogonalEdgeStyle;rounded=0;orthogonalLoop=1;jettySize=auto;html=1;fontSize=14;fontColor=#000000;entryX=0;entryY=0.5;entryDx=0;entryDy=0;" edge="1" parent="1" source="Xy0spjIBbxIXqmK404P5-40" target="Xy0spjIBbxIXqmK404P5-282">
          <mxGeometry relative="1" as="geometry">
            <Array as="points">
              <mxPoint x="1560" y="950" />
              <mxPoint x="1560" y="1000" />
            </Array>
          </mxGeometry>
        </mxCell>
        <mxCell id="Xy0spjIBbxIXqmK404P5-40" value="BQ.1.1" style="rounded=0;whiteSpace=wrap;html=1;fillColor=#d5e8d4;strokeColor=#82b366;fontFamily=Helvetica;fontSize=14;" vertex="1" parent="1">
          <mxGeometry x="1428.5" y="935" width="120" height="30" as="geometry" />
        </mxCell>
        <mxCell id="Xy0spjIBbxIXqmK404P5-41" value="" style="endArrow=classic;html=1;rounded=0;exitX=0.5;exitY=1;exitDx=0;exitDy=0;fontFamily=Helvetica;entryX=0.5;entryY=0;entryDx=0;entryDy=0;" edge="1" parent="1" source="Xy0spjIBbxIXqmK404P5-18" target="Xy0spjIBbxIXqmK404P5-174">
          <mxGeometry width="50" height="50" relative="1" as="geometry">
            <mxPoint x="1473.5" y="642" as="sourcePoint" />
            <mxPoint x="1219.5" y="667" as="targetPoint" />
          </mxGeometry>
        </mxCell>
        <mxCell id="Xy0spjIBbxIXqmK404P5-42" value="" style="edgeStyle=orthogonalEdgeStyle;rounded=0;orthogonalLoop=1;jettySize=auto;html=1;fontSize=16;fontFamily=Helvetica;" edge="1" parent="1" source="Xy0spjIBbxIXqmK404P5-43" target="Xy0spjIBbxIXqmK404P5-51">
          <mxGeometry relative="1" as="geometry" />
        </mxCell>
        <mxCell id="Xy0spjIBbxIXqmK404P5-43" value="BA.2.75.1" style="rounded=0;whiteSpace=wrap;html=1;fillColor=#e1d5e7;strokeColor=#9673a6;fontFamily=Helvetica;fontSize=14;" vertex="1" parent="1">
          <mxGeometry x="69.5" y="793" width="120" height="30" as="geometry" />
        </mxCell>
        <mxCell id="Xy0spjIBbxIXqmK404P5-44" value="" style="edgeStyle=orthogonalEdgeStyle;rounded=0;orthogonalLoop=1;jettySize=auto;html=1;fontFamily=Helvetica;fontSize=12;fontColor=#000000;entryX=0;entryY=0.5;entryDx=0;entryDy=0;" edge="1" parent="1" source="Xy0spjIBbxIXqmK404P5-45" target="Xy0spjIBbxIXqmK404P5-110">
          <mxGeometry relative="1" as="geometry">
            <Array as="points">
              <mxPoint x="369.5" y="808" />
              <mxPoint x="369.5" y="1082" />
            </Array>
            <mxPoint x="339.5" y="1034" as="targetPoint" />
          </mxGeometry>
        </mxCell>
        <mxCell id="Xy0spjIBbxIXqmK404P5-45" value="BA.2.75.5" style="rounded=0;whiteSpace=wrap;html=1;fillColor=#e1d5e7;strokeColor=#9673a6;fontFamily=Helvetica;fontSize=14;" vertex="1" parent="1">
          <mxGeometry x="219.5" y="793" width="120" height="30" as="geometry" />
        </mxCell>
        <mxCell id="Xy0spjIBbxIXqmK404P5-46" value="" style="endArrow=classic;html=1;rounded=0;entryX=0.5;entryY=0;entryDx=0;entryDy=0;startArrow=none;fontFamily=Helvetica;" edge="1" parent="1" target="Xy0spjIBbxIXqmK404P5-45">
          <mxGeometry width="50" height="50" relative="1" as="geometry">
            <mxPoint x="397.5" y="765" as="sourcePoint" />
            <mxPoint x="577.5" y="840" as="targetPoint" />
          </mxGeometry>
        </mxCell>
        <mxCell id="Xy0spjIBbxIXqmK404P5-47" value="" style="endArrow=classic;html=1;rounded=0;exitX=0;exitY=1;exitDx=0;exitDy=0;entryX=0.442;entryY=-0.1;entryDx=0;entryDy=0;entryPerimeter=0;fontFamily=Helvetica;" edge="1" parent="1" source="Xy0spjIBbxIXqmK404P5-14" target="Xy0spjIBbxIXqmK404P5-43">
          <mxGeometry width="50" height="50" relative="1" as="geometry">
            <mxPoint x="587.5" y="780" as="sourcePoint" />
            <mxPoint x="587.5" y="850" as="targetPoint" />
          </mxGeometry>
        </mxCell>
        <mxCell id="Xy0spjIBbxIXqmK404P5-48" value="" style="endArrow=classic;html=1;rounded=0;exitX=0.5;exitY=1;exitDx=0;exitDy=0;entryX=0.5;entryY=0;entryDx=0;entryDy=0;fontFamily=Helvetica;" edge="1" parent="1" source="Xy0spjIBbxIXqmK404P5-45" target="Xy0spjIBbxIXqmK404P5-53">
          <mxGeometry width="50" height="50" relative="1" as="geometry">
            <mxPoint x="289.5" y="733" as="sourcePoint" />
            <mxPoint x="319.5" y="843" as="targetPoint" />
          </mxGeometry>
        </mxCell>
        <mxCell id="Xy0spjIBbxIXqmK404P5-49" value="" style="edgeStyle=orthogonalEdgeStyle;rounded=0;orthogonalLoop=1;jettySize=auto;html=1;fontFamily=Helvetica;" edge="1" parent="1" source="Xy0spjIBbxIXqmK404P5-50" target="Xy0spjIBbxIXqmK404P5-55">
          <mxGeometry relative="1" as="geometry" />
        </mxCell>
        <mxCell id="Xy0spjIBbxIXqmK404P5-50" value="BA.2.10" style="rounded=0;whiteSpace=wrap;html=1;fillColor=#f8cecc;strokeColor=#b85450;fontFamily=Helvetica;fontSize=14;" vertex="1" parent="1">
          <mxGeometry x="671.5" y="735" width="120" height="30" as="geometry" />
        </mxCell>
        <mxCell id="Xy0spjIBbxIXqmK404P5-51" value="BL.1" style="rounded=0;whiteSpace=wrap;html=1;fillColor=#e1d5e7;strokeColor=#9673a6;fontFamily=Helvetica;fontSize=14;" vertex="1" parent="1">
          <mxGeometry x="69.5" y="853" width="120" height="30" as="geometry" />
        </mxCell>
        <mxCell id="Xy0spjIBbxIXqmK404P5-52" value="" style="edgeStyle=orthogonalEdgeStyle;rounded=0;orthogonalLoop=1;jettySize=auto;html=1;fontFamily=Helvetica;fontSize=14;fontColor=#000000;exitX=0.5;exitY=1;exitDx=0;exitDy=0;entryX=1;entryY=0.5;entryDx=0;entryDy=0;" edge="1" parent="1" source="Xy0spjIBbxIXqmK404P5-53" target="Xy0spjIBbxIXqmK404P5-71">
          <mxGeometry relative="1" as="geometry" />
        </mxCell>
        <mxCell id="Xy0spjIBbxIXqmK404P5-53" value="BN.1" style="rounded=0;whiteSpace=wrap;html=1;fillColor=#e1d5e7;strokeColor=#9673a6;fontFamily=Helvetica;fontSize=14;" vertex="1" parent="1">
          <mxGeometry x="219.5" y="853" width="120" height="30" as="geometry" />
        </mxCell>
        <mxCell id="Xy0spjIBbxIXqmK404P5-54" value="" style="edgeStyle=orthogonalEdgeStyle;rounded=0;orthogonalLoop=1;jettySize=auto;html=1;fontFamily=Helvetica;" edge="1" parent="1" source="Xy0spjIBbxIXqmK404P5-55" target="Xy0spjIBbxIXqmK404P5-56">
          <mxGeometry relative="1" as="geometry" />
        </mxCell>
        <mxCell id="Xy0spjIBbxIXqmK404P5-55" value="BA.2.10.1" style="rounded=0;whiteSpace=wrap;html=1;fillColor=#f8cecc;strokeColor=#b85450;fontFamily=Helvetica;fontSize=14;" vertex="1" parent="1">
          <mxGeometry x="671.5" y="792" width="120" height="30" as="geometry" />
        </mxCell>
        <mxCell id="Xy0spjIBbxIXqmK404P5-56" value="BJ.1" style="rounded=0;whiteSpace=wrap;html=1;fillColor=#f8cecc;strokeColor=#b85450;fontFamily=Helvetica;fontSize=14;" vertex="1" parent="1">
          <mxGeometry x="671.5" y="850" width="120" height="30" as="geometry" />
        </mxCell>
        <mxCell id="Xy0spjIBbxIXqmK404P5-57" value="" style="edgeStyle=orthogonalEdgeStyle;rounded=0;orthogonalLoop=1;jettySize=auto;html=1;fontFamily=Helvetica;fontSize=14;fontColor=#000000;entryX=0.5;entryY=0;entryDx=0;entryDy=0;" edge="1" parent="1" source="Xy0spjIBbxIXqmK404P5-58" target="Xy0spjIBbxIXqmK404P5-113">
          <mxGeometry relative="1" as="geometry">
            <Array as="points">
              <mxPoint x="731.5" y="969" />
              <mxPoint x="731.5" y="969" />
            </Array>
          </mxGeometry>
        </mxCell>
        <mxCell id="Xy0spjIBbxIXqmK404P5-58" value="XBB*" style="rounded=0;whiteSpace=wrap;html=1;fillColor=#fff2cc;strokeColor=#d6b656;fontStyle=1;fontSize=16;fontFamily=Helvetica;" vertex="1" parent="1">
          <mxGeometry x="671.5" y="918" width="120" height="30" as="geometry" />
        </mxCell>
        <mxCell id="Xy0spjIBbxIXqmK404P5-59" value="" style="edgeStyle=orthogonalEdgeStyle;rounded=0;orthogonalLoop=1;jettySize=auto;html=1;exitX=1;exitY=0.5;exitDx=0;exitDy=0;entryX=0.5;entryY=0;entryDx=0;entryDy=0;fontFamily=Helvetica;" edge="1" parent="1" source="Xy0spjIBbxIXqmK404P5-119" target="Xy0spjIBbxIXqmK404P5-58">
          <mxGeometry relative="1" as="geometry">
            <mxPoint x="587.5" y="868.9999999999998" as="sourcePoint" />
            <mxPoint x="727.5" y="918" as="targetPoint" />
            <Array as="points">
              <mxPoint x="657.5" y="975" />
              <mxPoint x="657.5" y="901" />
              <mxPoint x="731.5" y="901" />
            </Array>
          </mxGeometry>
        </mxCell>
        <mxCell id="Xy0spjIBbxIXqmK404P5-60" value="" style="edgeStyle=orthogonalEdgeStyle;rounded=0;orthogonalLoop=1;jettySize=auto;html=1;exitX=0.5;exitY=1;exitDx=0;exitDy=0;entryX=0.5;entryY=0;entryDx=0;entryDy=0;fontFamily=Helvetica;" edge="1" parent="1" source="Xy0spjIBbxIXqmK404P5-56" target="Xy0spjIBbxIXqmK404P5-58">
          <mxGeometry relative="1" as="geometry">
            <mxPoint x="741.5" y="796.9999999999998" as="sourcePoint" />
            <mxPoint x="741.5" y="863" as="targetPoint" />
          </mxGeometry>
        </mxCell>
        <mxCell id="Xy0spjIBbxIXqmK404P5-61" value="B.1.617.2 (Delta)" style="rounded=0;whiteSpace=wrap;html=1;fillColor=#fff2cc;strokeColor=#d6b656;fontStyle=1;fontSize=16;fontFamily=Helvetica;" vertex="1" parent="1">
          <mxGeometry x="1003.5" y="279" width="164" height="30" as="geometry" />
        </mxCell>
        <mxCell id="Xy0spjIBbxIXqmK404P5-62" value="NC_045512.2 (B)" style="rounded=0;whiteSpace=wrap;html=1;fillColor=#fff2cc;strokeColor=#d6b656;fontStyle=1;fontSize=24;fontFamily=Helvetica;" vertex="1" parent="1">
          <mxGeometry x="1487.5" y="160" width="326" height="70" as="geometry" />
        </mxCell>
        <mxCell id="Xy0spjIBbxIXqmK404P5-63" value="" style="endArrow=classic;html=1;rounded=0;exitX=0;exitY=0.5;exitDx=0;exitDy=0;entryX=1;entryY=0.5;entryDx=0;entryDy=0;startArrow=none;fontFamily=Helvetica;" edge="1" parent="1" source="Xy0spjIBbxIXqmK404P5-65" target="Xy0spjIBbxIXqmK404P5-61">
          <mxGeometry width="50" height="50" relative="1" as="geometry">
            <mxPoint x="1582.5" y="294" as="sourcePoint" />
            <mxPoint x="1868.5" y="304" as="targetPoint" />
            <Array as="points" />
          </mxGeometry>
        </mxCell>
        <mxCell id="Xy0spjIBbxIXqmK404P5-64" value="" style="edgeStyle=orthogonalEdgeStyle;rounded=0;orthogonalLoop=1;jettySize=auto;html=1;fontFamily=Helvetica;fontSize=18;fontColor=#000000;" edge="1" parent="1" source="Xy0spjIBbxIXqmK404P5-65" target="Xy0spjIBbxIXqmK404P5-127">
          <mxGeometry relative="1" as="geometry" />
        </mxCell>
        <mxCell id="Xy0spjIBbxIXqmK404P5-65" value="B.1" style="rounded=0;whiteSpace=wrap;html=1;fontFamily=Helvetica;fontSize=14;" vertex="1" parent="1">
          <mxGeometry x="1590.5" y="279" width="120" height="30" as="geometry" />
        </mxCell>
        <mxCell id="Xy0spjIBbxIXqmK404P5-66" value="" style="endArrow=classic;html=1;rounded=0;exitX=0.5;exitY=1;exitDx=0;exitDy=0;fontFamily=Helvetica;" edge="1" parent="1" source="Xy0spjIBbxIXqmK404P5-62" target="Xy0spjIBbxIXqmK404P5-65">
          <mxGeometry width="50" height="50" relative="1" as="geometry">
            <mxPoint x="1660.5" y="206" as="sourcePoint" />
            <mxPoint x="1508.5" y="295.9999999999998" as="targetPoint" />
          </mxGeometry>
        </mxCell>
        <mxCell id="Xy0spjIBbxIXqmK404P5-67" value="&lt;div style=&quot;font-size: 20px;&quot;&gt;&lt;ul style=&quot;font-size: 20px;&quot;&gt;&lt;li style=&quot;font-size: 20px;&quot;&gt;&lt;span style=&quot;background-color: initial; font-size: 20px;&quot;&gt;Not all lineages are shown here&lt;/span&gt;&lt;/li&gt;&lt;li style=&quot;font-size: 20px;&quot;&gt;&lt;span style=&quot;background-color: initial; font-size: 20px;&quot;&gt;Important lineages were bold and highlighted in Orange&lt;/span&gt;&lt;/li&gt;&lt;/ul&gt;&lt;/div&gt;" style="html=1;whiteSpace=wrap;container=1;recursiveResize=0;collapsible=0;fontSize=20;align=left;fontFamily=Helvetica;" vertex="1" parent="1">
          <mxGeometry x="50" y="160" width="608" height="80" as="geometry" />
        </mxCell>
        <mxCell id="Xy0spjIBbxIXqmK404P5-68" value="" style="edgeStyle=orthogonalEdgeStyle;rounded=0;orthogonalLoop=1;jettySize=auto;html=1;fontFamily=Helvetica;fontSize=18;fontColor=#000000;exitX=0.5;exitY=1;exitDx=0;exitDy=0;entryX=0;entryY=0.5;entryDx=0;entryDy=0;" edge="1" parent="1" source="Xy0spjIBbxIXqmK404P5-69" target="Xy0spjIBbxIXqmK404P5-130">
          <mxGeometry relative="1" as="geometry">
            <mxPoint x="1488.566666666667" y="751" as="sourcePoint" />
          </mxGeometry>
        </mxCell>
        <mxCell id="Xy0spjIBbxIXqmK404P5-69" value="BA.5.2.1" style="rounded=0;whiteSpace=wrap;html=1;fillColor=#dae8fc;strokeColor=#6c8ebf;fontFamily=Helvetica;fontSize=14;" vertex="1" parent="1">
          <mxGeometry x="1428.5" y="667" width="120" height="30" as="geometry" />
        </mxCell>
        <mxCell id="Xy0spjIBbxIXqmK404P5-70" value="BF.1" style="rounded=0;whiteSpace=wrap;html=1;fillColor=#dae8fc;strokeColor=#6c8ebf;fontFamily=Helvetica;fontSize=14;" vertex="1" parent="1">
          <mxGeometry x="1616.5" y="726" width="120" height="30" as="geometry" />
        </mxCell>
        <mxCell id="Xy0spjIBbxIXqmK404P5-71" value="BN.1.2" style="rounded=0;whiteSpace=wrap;html=1;fillColor=#e1d5e7;strokeColor=#9673a6;fontFamily=Helvetica;fontSize=14;" vertex="1" parent="1">
          <mxGeometry x="69.5" y="912" width="120" height="30" as="geometry" />
        </mxCell>
        <mxCell id="Xy0spjIBbxIXqmK404P5-72" value="K444T&lt;font color=&quot;#0000ff&quot; style=&quot;font-size: 13px;&quot;&gt;@&lt;/font&gt;" style="text;html=1;strokeColor=none;fillColor=none;align=left;verticalAlign=middle;whiteSpace=wrap;rounded=0;fontSize=13;fontFamily=Helvetica;" vertex="1" parent="1">
          <mxGeometry x="1353.5" y="813" width="60" height="20" as="geometry" />
        </mxCell>
        <mxCell id="Xy0spjIBbxIXqmK404P5-73" value="N460K" style="text;html=1;strokeColor=none;fillColor=none;align=left;verticalAlign=middle;whiteSpace=wrap;rounded=0;fontSize=13;fontFamily=Helvetica;" vertex="1" parent="1">
          <mxGeometry x="1352.5" y="867" width="60" height="20" as="geometry" />
        </mxCell>
        <mxCell id="Xy0spjIBbxIXqmK404P5-74" value="R346T&lt;font color=&quot;#0000ff&quot; style=&quot;font-size: 13px;&quot;&gt;@&lt;/font&gt;&lt;font color=&quot;#ff0000&quot; style=&quot;font-size: 13px;&quot;&gt;@&lt;/font&gt;" style="text;html=1;strokeColor=none;fillColor=none;align=left;verticalAlign=middle;whiteSpace=wrap;rounded=0;fontSize=13;fontFamily=Helvetica;" vertex="1" parent="1">
          <mxGeometry x="1354.5" y="929" width="60" height="20" as="geometry" />
        </mxCell>
        <mxCell id="Xy0spjIBbxIXqmK404P5-75" value="I1221T" style="text;html=1;strokeColor=none;fillColor=none;align=center;verticalAlign=middle;whiteSpace=wrap;rounded=0;fontSize=13;fontFamily=Helvetica;" vertex="1" parent="1">
          <mxGeometry x="244.5" y="546" width="60" height="20" as="geometry" />
        </mxCell>
        <mxCell id="Xy0spjIBbxIXqmK404P5-76" value="&lt;font style=&quot;font-size: 26px;&quot;&gt;**&lt;/font&gt;" style="text;html=1;strokeColor=none;fillColor=none;align=center;verticalAlign=middle;whiteSpace=wrap;rounded=0;fontSize=26;fontFamily=Helvetica;" vertex="1" parent="1">
          <mxGeometry x="387.5" y="718" width="60" height="20" as="geometry" />
        </mxCell>
        <mxCell id="Xy0spjIBbxIXqmK404P5-77" value="G798D" style="text;html=1;strokeColor=none;fillColor=none;align=center;verticalAlign=middle;whiteSpace=wrap;rounded=0;fontSize=13;fontFamily=Helvetica;" vertex="1" parent="1">
          <mxGeometry x="737.5" y="768" width="60" height="20" as="geometry" />
        </mxCell>
        <mxCell id="Xy0spjIBbxIXqmK404P5-78" value="&lt;span style=&quot;font-size: 20px;&quot;&gt;&lt;font color=&quot;#070708&quot; style=&quot;font-size: 20px;&quot;&gt;## V83A, H146Q, Q183E, V213E, G339H, R346T&lt;/font&gt;&lt;/span&gt;&lt;span style=&quot;color: rgb(0, 0, 255); font-size: 20px;&quot;&gt;@&lt;/span&gt;&lt;span style=&quot;font-size: 20px;&quot;&gt;&lt;font color=&quot;#ff0000&quot; style=&quot;font-size: 20px;&quot;&gt;@&lt;/font&gt;&lt;/span&gt;&lt;span style=&quot;font-size: 20px;&quot;&gt;&lt;font color=&quot;#070708&quot; style=&quot;font-size: 20px;&quot;&gt;, L368I, V445P&lt;/font&gt;&lt;/span&gt;&lt;span style=&quot;color: rgb(0, 0, 255); font-size: 20px;&quot;&gt;@&lt;/span&gt;&lt;span style=&quot;font-size: 20px;&quot;&gt;&lt;font color=&quot;#070708&quot; style=&quot;font-size: 20px;&quot;&gt;, G446S&lt;/font&gt;&lt;/span&gt;&lt;span style=&quot;border-color: var(--border-color); color: rgb(0, 0, 255); font-size: 20px;&quot;&gt;@&lt;/span&gt;&lt;span style=&quot;border-color: var(--border-color); font-size: 20px;&quot;&gt;&lt;font style=&quot;border-color: var(--border-color); font-size: 20px;&quot; color=&quot;#ff0000&quot;&gt;@&lt;/font&gt;&lt;/span&gt;&lt;span style=&quot;font-size: 20px;&quot;&gt;&lt;font color=&quot;#070708&quot; style=&quot;font-size: 20px;&quot;&gt;, V483A&lt;/font&gt;&lt;/span&gt;&lt;span style=&quot;color: rgb(0, 0, 255); font-size: 20px;&quot;&gt;@&lt;/span&gt;&lt;span style=&quot;font-size: 20px;&quot;&gt;&lt;font color=&quot;#070708&quot; style=&quot;font-size: 20px;&quot;&gt;, F490V&lt;/font&gt;&lt;font color=&quot;#ff00ff&quot; style=&quot;font-size: 20px;&quot;&gt;@&lt;/font&gt;&lt;font color=&quot;#0000ff&quot; style=&quot;font-size: 20px;&quot;&gt;@&lt;/font&gt;&lt;/span&gt;&lt;span style=&quot;color: rgb(7, 7, 8); font-size: 20px;&quot;&gt;, G798D, S1003I&amp;nbsp; &lt;/span&gt;&lt;font style=&quot;font-size: 20px;&quot; color=&quot;#070708&quot;&gt;(&lt;/font&gt;&lt;font color=&quot;#070708&quot; style=&quot;font-size: 20px;&quot;&gt;&lt;font style=&quot;font-size: 20px;&quot;&gt;https://github.com/cov-lineages/pango-designation/issues/915)&lt;/font&gt;&lt;br style=&quot;font-size: 20px;&quot;&gt;&lt;/font&gt;" style="text;html=1;align=left;verticalAlign=middle;resizable=0;points=[];autosize=1;strokeColor=none;fillColor=none;fontSize=20;fontFamily=Helvetica;" vertex="1" parent="1">
          <mxGeometry x="123.5" y="1390" width="1690" height="40" as="geometry" />
        </mxCell>
        <mxCell id="Xy0spjIBbxIXqmK404P5-79" value="&lt;font style=&quot;font-size: 14px;&quot;&gt;##&lt;/font&gt;" style="text;html=1;strokeColor=none;fillColor=none;align=center;verticalAlign=middle;whiteSpace=wrap;rounded=0;fontSize=14;fontFamily=Helvetica;" vertex="1" parent="1">
          <mxGeometry x="731.5" y="827" width="60" height="20" as="geometry" />
        </mxCell>
        <mxCell id="Xy0spjIBbxIXqmK404P5-80" value="&lt;font style=&quot;font-size: 20px;&quot; color=&quot;#000000&quot;&gt;** K147E, W152R, F157L, I210V, G257S, D339H (mutated from G339D), G446S&lt;/font&gt;&lt;span style=&quot;border-color: var(--border-color); color: rgb(0, 0, 255); font-size: 20px;&quot;&gt;@&lt;/span&gt;&lt;span style=&quot;border-color: var(--border-color); color: rgb(0, 0, 0); font-size: 20px;&quot;&gt;&lt;font style=&quot;border-color: var(--border-color); font-size: 20px;&quot; color=&quot;#ff0000&quot;&gt;@&lt;/font&gt;&lt;/span&gt;&lt;font style=&quot;font-size: 20px;&quot; color=&quot;#000000&quot;&gt;, N460K, R493Q&lt;/font&gt;&lt;font style=&quot;border-color: var(--border-color); font-size: 20px;&quot; color=&quot;#ff00ff&quot;&gt;@&lt;/font&gt;&lt;font style=&quot;border-color: var(--border-color); font-size: 20px;&quot; color=&quot;#0000ff&quot;&gt;@&lt;/font&gt;&lt;font style=&quot;font-size: 20px;&quot; color=&quot;#000000&quot;&gt;(R) &lt;/font&gt;&lt;font style=&quot;font-size: 20px;&quot; color=&quot;#000000&quot;&gt;(https://github.com/cov-lineages/pango-designation/issues/773)&lt;/font&gt;" style="text;html=1;align=left;verticalAlign=middle;resizable=0;points=[];autosize=1;strokeColor=none;fillColor=none;fontSize=20;fontColor=#070708;fontFamily=Helvetica;" vertex="1" parent="1">
          <mxGeometry x="123.5" y="1360" width="1560" height="40" as="geometry" />
        </mxCell>
        <mxCell id="Xy0spjIBbxIXqmK404P5-81" value="Break point at S1" style="text;html=1;strokeColor=none;fillColor=none;align=center;verticalAlign=middle;whiteSpace=wrap;rounded=0;fontSize=13;fontFamily=Helvetica;" vertex="1" parent="1">
          <mxGeometry x="738.5" y="888" width="110" height="20" as="geometry" />
        </mxCell>
        <mxCell id="Xy0spjIBbxIXqmK404P5-82" value="&lt;span style=&quot;text-align: left; font-size: 13px;&quot;&gt;D574V&lt;/span&gt;" style="text;html=1;align=center;verticalAlign=middle;resizable=0;points=[];autosize=1;strokeColor=none;fillColor=none;fontSize=13;fontColor=#000000;fontFamily=Helvetica;" vertex="1" parent="1">
          <mxGeometry x="129.5" y="765" width="60" height="30" as="geometry" />
        </mxCell>
        <mxCell id="Xy0spjIBbxIXqmK404P5-83" value="&lt;span style=&quot;color: rgb(44, 62, 80); font-size: 13px; font-style: normal; font-variant-ligatures: normal; font-variant-caps: normal; font-weight: 400; letter-spacing: normal; orphans: 2; text-align: left; text-indent: 0px; text-transform: none; widows: 2; word-spacing: 0px; -webkit-text-stroke-width: 0px; text-decoration-thickness: initial; text-decoration-style: initial; text-decoration-color: initial; float: none; display: inline !important;&quot;&gt;&lt;span style=&quot;background-color: rgb(251, 251, 251); color: rgb(0, 0, 0); font-size: 13px;&quot;&gt;R346T&lt;/span&gt;&lt;font style=&quot;background-color: rgb(251, 251, 251); border-color: var(--border-color); font-size: 13px;&quot; color=&quot;#0000ff&quot;&gt;@&lt;/font&gt;&lt;font style=&quot;background-color: rgb(251, 251, 251); border-color: var(--border-color); font-size: 13px;&quot; color=&quot;#ff0000&quot;&gt;@&lt;/font&gt;&lt;span style=&quot;background-color: rgb(248, 249, 250); font-size: 13px;&quot;&gt;,&lt;br style=&quot;font-size: 13px;&quot;&gt;&lt;/span&gt;&lt;/span&gt;F490S&lt;span style=&quot;font-size: 13px;&quot;&gt;&lt;font color=&quot;#ff00ff&quot; style=&quot;font-size: 13px;&quot;&gt;@&lt;/font&gt;&lt;/span&gt;&lt;span style=&quot;font-size: 13px;&quot;&gt;&lt;font color=&quot;#0000ff&quot; style=&quot;font-size: 13px;&quot;&gt;@&lt;/font&gt;&lt;/span&gt;" style="text;whiteSpace=wrap;html=1;fontSize=13;fontColor=#000000;fontFamily=Helvetica;" vertex="1" parent="1">
          <mxGeometry x="286.5" y="817" width="90" height="44" as="geometry" />
        </mxCell>
        <mxCell id="Xy0spjIBbxIXqmK404P5-84" value="A67V, 69-70del, T95I, 143-145del, NL211I, 215EPEins, S371L, Q493R&lt;font style=&quot;border-color: var(--border-color); font-size: 14px;&quot; color=&quot;#ff00ff&quot;&gt;@&lt;/font&gt;&lt;font style=&quot;border-color: var(--border-color); font-size: 14px;&quot; color=&quot;#0000ff&quot;&gt;@&lt;/font&gt;, &lt;br style=&quot;font-size: 14px;&quot;&gt;G496S, T547K, N856K, L981F" style="text;html=1;align=left;verticalAlign=middle;resizable=0;points=[];autosize=1;strokeColor=none;fillColor=none;fontSize=14;fontColor=#000000;fontFamily=Helvetica;" vertex="1" parent="1">
          <mxGeometry x="200.5" y="309" width="490" height="50" as="geometry" />
        </mxCell>
        <mxCell id="Xy0spjIBbxIXqmK404P5-85" value="T19I, LPPA24S, 69-70del, V213G, S371F, T376A, D405N, R408S&lt;font color=&quot;#ff00ff&quot; style=&quot;font-size: 13px;&quot;&gt;@&lt;/font&gt;, L452R&lt;font color=&quot;#0000ff&quot; style=&quot;font-size: 13px;&quot;&gt;@&lt;/font&gt;, F486V&lt;font style=&quot;font-size: 13px;&quot;&gt;&lt;font style=&quot;border-color: var(--border-color); font-size: 13px;&quot; color=&quot;#ff00ff&quot;&gt;@&lt;/font&gt;&lt;font style=&quot;border-color: var(--border-color); font-size: 13px;&quot; color=&quot;#0000ff&quot;&gt;@&lt;/font&gt;&lt;/font&gt;" style="text;html=1;align=left;verticalAlign=middle;resizable=0;points=[];autosize=1;strokeColor=none;fillColor=none;fontSize=13;fontColor=#000000;fontFamily=Helvetica;" vertex="1" parent="1">
          <mxGeometry x="787.5" y="514" width="550" height="30" as="geometry" />
        </mxCell>
        <mxCell id="Xy0spjIBbxIXqmK404P5-86" value="G142D, G339D, S373P, S375F, K417N&lt;font style=&quot;border-color: var(--border-color); font-size: 13px;&quot; color=&quot;#ff00ff&quot;&gt;@&lt;/font&gt;&lt;font style=&quot;border-color: var(--border-color); font-size: 13px;&quot; color=&quot;#0000ff&quot;&gt;@&lt;/font&gt;, N440K, S477N&lt;font style=&quot;border-color: var(--border-color); font-size: 13px;&quot; color=&quot;#ff00ff&quot;&gt;@&lt;/font&gt;, T478K&lt;font style=&quot;border-color: var(--border-color); font-size: 13px;&quot; color=&quot;#0000ff&quot;&gt;@&lt;/font&gt;, E484A&lt;font style=&quot;border-color: var(--border-color); font-size: 13px;&quot; color=&quot;#ff00ff&quot;&gt;@&lt;/font&gt;&lt;font style=&quot;border-color: var(--border-color); font-size: 13px;&quot; color=&quot;#0000ff&quot;&gt;@&lt;/font&gt;, Q498R, N501Y, Y505H, H655Y, N679K, P681H, N764K, D796Y, Q954H, N969K" style="text;html=1;align=left;verticalAlign=middle;resizable=0;points=[];autosize=1;strokeColor=none;fillColor=none;fontSize=13;fontColor=#000000;fontFamily=Helvetica;" vertex="1" parent="1">
          <mxGeometry x="687.5" y="411" width="980" height="30" as="geometry" />
        </mxCell>
        <mxCell id="Xy0spjIBbxIXqmK404P5-87" value="D614G" style="text;html=1;align=center;verticalAlign=middle;resizable=0;points=[];autosize=1;strokeColor=none;fillColor=none;fontSize=13;fontColor=#000000;fontFamily=Helvetica;" vertex="1" parent="1">
          <mxGeometry x="1649.5" y="239" width="60" height="30" as="geometry" />
        </mxCell>
        <mxCell id="Xy0spjIBbxIXqmK404P5-88" value="&lt;font style=&quot;font-size: 20px;&quot;&gt;++&lt;/font&gt;" style="text;html=1;align=center;verticalAlign=middle;resizable=0;points=[];autosize=1;strokeColor=none;fillColor=none;fontSize=20;fontColor=#000000;fontFamily=Helvetica;" vertex="1" parent="1">
          <mxGeometry x="873.5" y="641" width="50" height="40" as="geometry" />
        </mxCell>
        <mxCell id="Xy0spjIBbxIXqmK404P5-89" value="&lt;font style=&quot;font-size: 20px;&quot;&gt;++&amp;nbsp;M153T, N164K, H245N, G257D, K444R&lt;span style=&quot;color: rgb(0, 0, 255); font-size: 20px;&quot;&gt;@&lt;/span&gt;, N450D&lt;span style=&quot;color: rgb(0, 0, 255); font-size: 20px;&quot;&gt;@&lt;/span&gt;, L452M&lt;span style=&quot;color: rgb(0, 0, 255); font-size: 20px;&quot;&gt;@&lt;/span&gt;, N460K, E484R&lt;font style=&quot;border-color: var(--border-color); font-size: 20px;&quot; color=&quot;#ff00ff&quot;&gt;@&lt;/font&gt;&lt;font style=&quot;border-color: var(--border-color); font-size: 20px;&quot; color=&quot;#0000ff&quot;&gt;@&lt;/font&gt;, R493Q&lt;font style=&quot;border-color: var(--border-color); font-size: 20px;&quot; color=&quot;#ff00ff&quot;&gt;@&lt;/font&gt;&lt;font style=&quot;border-color: var(--border-color); font-size: 20px;&quot; color=&quot;#0000ff&quot;&gt;@&lt;/font&gt;(R)&lt;/font&gt;" style="text;html=1;align=left;verticalAlign=middle;resizable=0;points=[];autosize=1;strokeColor=none;fillColor=none;fontSize=20;fontColor=#000000;fontFamily=Helvetica;" vertex="1" parent="1">
          <mxGeometry x="123.5" y="1420" width="940" height="40" as="geometry" />
        </mxCell>
        <mxCell id="Xy0spjIBbxIXqmK404P5-90" value="" style="edgeStyle=orthogonalEdgeStyle;rounded=0;orthogonalLoop=1;jettySize=auto;html=1;fontFamily=Helvetica;fontSize=14;fontColor=#000000;exitX=0;exitY=0.5;exitDx=0;exitDy=0;entryX=1;entryY=0.5;entryDx=0;entryDy=0;" edge="1" parent="1" source="Xy0spjIBbxIXqmK404P5-91" target="Xy0spjIBbxIXqmK404P5-94">
          <mxGeometry relative="1" as="geometry">
            <Array as="points">
              <mxPoint x="517.5" y="807" />
              <mxPoint x="517.5" y="807" />
            </Array>
          </mxGeometry>
        </mxCell>
        <mxCell id="Xy0spjIBbxIXqmK404P5-91" value="BA.2.75.3" style="rounded=0;whiteSpace=wrap;html=1;fillColor=#e1d5e7;strokeColor=#9673a6;fontFamily=Helvetica;fontSize=14;" vertex="1" parent="1">
          <mxGeometry x="527.5" y="792" width="120" height="30" as="geometry" />
        </mxCell>
        <mxCell id="Xy0spjIBbxIXqmK404P5-92" value="" style="endArrow=classic;html=1;rounded=0;exitX=0.5;exitY=1;exitDx=0;exitDy=0;entryX=0.5;entryY=0;entryDx=0;entryDy=0;fontFamily=Helvetica;" edge="1" parent="1" source="Xy0spjIBbxIXqmK404P5-14" target="Xy0spjIBbxIXqmK404P5-91">
          <mxGeometry width="50" height="50" relative="1" as="geometry">
            <mxPoint x="377.5" y="770" as="sourcePoint" />
            <mxPoint x="160.53999999999974" y="807" as="targetPoint" />
          </mxGeometry>
        </mxCell>
        <mxCell id="Xy0spjIBbxIXqmK404P5-93" value="" style="edgeStyle=orthogonalEdgeStyle;rounded=0;orthogonalLoop=1;jettySize=auto;html=1;fontFamily=Helvetica;fontSize=13;fontColor=#000000;" edge="1" parent="1" source="Xy0spjIBbxIXqmK404P5-94" target="Xy0spjIBbxIXqmK404P5-96">
          <mxGeometry relative="1" as="geometry" />
        </mxCell>
        <mxCell id="Xy0spjIBbxIXqmK404P5-94" value="BM.4" style="rounded=0;whiteSpace=wrap;html=1;fillColor=#e1d5e7;strokeColor=#9673a6;fontFamily=Helvetica;fontSize=14;" vertex="1" parent="1">
          <mxGeometry x="387.5" y="792" width="120" height="30" as="geometry" />
        </mxCell>
        <mxCell id="Xy0spjIBbxIXqmK404P5-95" value="" style="edgeStyle=orthogonalEdgeStyle;rounded=0;orthogonalLoop=1;jettySize=auto;html=1;fontFamily=Helvetica;fontSize=13;fontColor=#000000;" edge="1" parent="1" source="Xy0spjIBbxIXqmK404P5-96" target="Xy0spjIBbxIXqmK404P5-98">
          <mxGeometry relative="1" as="geometry" />
        </mxCell>
        <mxCell id="Xy0spjIBbxIXqmK404P5-96" value="BM.4.1" style="rounded=0;whiteSpace=wrap;html=1;fillColor=#e1d5e7;strokeColor=#9673a6;fontFamily=Helvetica;fontSize=14;" vertex="1" parent="1">
          <mxGeometry x="387.5" y="849" width="120" height="30" as="geometry" />
        </mxCell>
        <mxCell id="Xy0spjIBbxIXqmK404P5-97" value="" style="edgeStyle=orthogonalEdgeStyle;rounded=0;orthogonalLoop=1;jettySize=auto;html=1;fontFamily=Helvetica;fontSize=13;fontColor=#000000;" edge="1" parent="1" source="Xy0spjIBbxIXqmK404P5-98" target="Xy0spjIBbxIXqmK404P5-99">
          <mxGeometry relative="1" as="geometry" />
        </mxCell>
        <mxCell id="Xy0spjIBbxIXqmK404P5-98" value="BM.4.1.1" style="rounded=0;whiteSpace=wrap;html=1;fillColor=#e1d5e7;strokeColor=#9673a6;fontFamily=Helvetica;fontSize=14;" vertex="1" parent="1">
          <mxGeometry x="387.5" y="905" width="120" height="30" as="geometry" />
        </mxCell>
        <mxCell id="Xy0spjIBbxIXqmK404P5-99" value="CH.1" style="rounded=0;whiteSpace=wrap;html=1;fillColor=#e1d5e7;strokeColor=#9673a6;fontFamily=Helvetica;fontSize=14;" vertex="1" parent="1">
          <mxGeometry x="387.5" y="961" width="120" height="30" as="geometry" />
        </mxCell>
        <mxCell id="Xy0spjIBbxIXqmK404P5-100" value="CH.1.1" style="rounded=0;whiteSpace=wrap;html=1;fillColor=#e1d5e7;strokeColor=#9673a6;fontFamily=Helvetica;fontSize=14;" vertex="1" parent="1">
          <mxGeometry x="387.5" y="1015" width="120" height="30" as="geometry" />
        </mxCell>
        <mxCell id="Xy0spjIBbxIXqmK404P5-101" value="" style="edgeStyle=orthogonalEdgeStyle;rounded=0;orthogonalLoop=1;jettySize=auto;html=1;fontFamily=Helvetica;fontSize=13;fontColor=#000000;exitX=0.5;exitY=1;exitDx=0;exitDy=0;entryX=0.5;entryY=0;entryDx=0;entryDy=0;" edge="1" parent="1" source="Xy0spjIBbxIXqmK404P5-99" target="Xy0spjIBbxIXqmK404P5-100">
          <mxGeometry relative="1" as="geometry">
            <mxPoint x="457.5000000000002" y="985" as="sourcePoint" />
            <mxPoint x="457.5000000000002" y="1011" as="targetPoint" />
          </mxGeometry>
        </mxCell>
        <mxCell id="Xy0spjIBbxIXqmK404P5-102" value="&lt;span style=&quot;color: rgb(0, 0, 0); font-size: 13px; font-style: normal; font-variant-ligatures: normal; font-variant-caps: normal; font-weight: 400; letter-spacing: normal; orphans: 2; text-align: left; text-indent: 0px; text-transform: none; widows: 2; word-spacing: 0px; -webkit-text-stroke-width: 0px; background-color: rgb(251, 251, 251); text-decoration-thickness: initial; text-decoration-style: initial; text-decoration-color: initial; float: none; display: inline !important;&quot;&gt;R346T&lt;/span&gt;&lt;font style=&quot;border-color: var(--border-color); font-size: 13px; font-style: normal; font-variant-ligatures: normal; font-variant-caps: normal; font-weight: 400; letter-spacing: normal; orphans: 2; text-align: left; text-indent: 0px; text-transform: none; widows: 2; word-spacing: 0px; -webkit-text-stroke-width: 0px; background-color: rgb(251, 251, 251); text-decoration-thickness: initial; text-decoration-style: initial; text-decoration-color: initial;&quot; color=&quot;#0000ff&quot;&gt;@&lt;/font&gt;&lt;font style=&quot;border-color: var(--border-color); font-size: 13px; font-style: normal; font-variant-ligatures: normal; font-variant-caps: normal; font-weight: 400; letter-spacing: normal; orphans: 2; text-align: left; text-indent: 0px; text-transform: none; widows: 2; word-spacing: 0px; -webkit-text-stroke-width: 0px; background-color: rgb(251, 251, 251); text-decoration-thickness: initial; text-decoration-style: initial; text-decoration-color: initial;&quot; color=&quot;#ff0000&quot;&gt;@&lt;/font&gt;" style="text;html=1;align=center;verticalAlign=middle;resizable=0;points=[];autosize=1;strokeColor=none;fillColor=none;fontSize=13;fontColor=#000000;fontFamily=Helvetica;" vertex="1" parent="1">
          <mxGeometry x="364.5" y="877" width="90" height="30" as="geometry" />
        </mxCell>
        <mxCell id="Xy0spjIBbxIXqmK404P5-103" value="K444T&lt;span style=&quot;border-color: var(--border-color); text-align: left; font-size: 13px;&quot;&gt;&lt;font style=&quot;border-color: var(--border-color); font-size: 13px;&quot; color=&quot;#0000ff&quot;&gt;@&lt;/font&gt;&lt;/span&gt;" style="text;html=1;strokeColor=none;fillColor=none;align=center;verticalAlign=middle;whiteSpace=wrap;rounded=0;fontSize=13;fontFamily=Helvetica;" vertex="1" parent="1">
          <mxGeometry x="387.5" y="937" width="60" height="20" as="geometry" />
        </mxCell>
        <mxCell id="Xy0spjIBbxIXqmK404P5-104" value="L452R&lt;span style=&quot;color: rgb(0, 0, 255); text-align: left; font-size: 13px;&quot;&gt;@&lt;/span&gt;" style="text;html=1;strokeColor=none;fillColor=none;align=center;verticalAlign=middle;whiteSpace=wrap;rounded=0;fontSize=13;fontFamily=Helvetica;" vertex="1" parent="1">
          <mxGeometry x="387.5" y="992" width="60" height="20" as="geometry" />
        </mxCell>
        <mxCell id="Xy0spjIBbxIXqmK404P5-105" value="" style="edgeStyle=orthogonalEdgeStyle;rounded=0;orthogonalLoop=1;jettySize=auto;html=1;fontFamily=Helvetica;fontSize=14;fontColor=#000000;exitX=0.5;exitY=1;exitDx=0;exitDy=0;" edge="1" parent="1" source="Xy0spjIBbxIXqmK404P5-113" target="Xy0spjIBbxIXqmK404P5-107">
          <mxGeometry relative="1" as="geometry">
            <mxPoint x="730.5" y="1013" as="sourcePoint" />
          </mxGeometry>
        </mxCell>
        <mxCell id="Xy0spjIBbxIXqmK404P5-106" value="" style="edgeStyle=orthogonalEdgeStyle;rounded=0;orthogonalLoop=1;jettySize=auto;html=1;fontFamily=Helvetica;fontSize=14;fontColor=#000000;exitX=1;exitY=0.5;exitDx=0;exitDy=0;entryX=1;entryY=0.5;entryDx=0;entryDy=0;" edge="1" parent="1" source="Xy0spjIBbxIXqmK404P5-58" target="Xy0spjIBbxIXqmK404P5-112">
          <mxGeometry relative="1" as="geometry">
            <mxPoint x="591.5000000000002" y="898" as="sourcePoint" />
            <mxPoint x="791.5" y="1141" as="targetPoint" />
            <Array as="points">
              <mxPoint x="820" y="933" />
              <mxPoint x="820" y="1233" />
            </Array>
          </mxGeometry>
        </mxCell>
        <mxCell id="Xy0spjIBbxIXqmK404P5-107" value="XBB.1.1" style="rounded=0;whiteSpace=wrap;html=1;fillColor=#bac8d3;strokeColor=#23445d;fontFamily=Helvetica;fontSize=14;" vertex="1" parent="1">
          <mxGeometry x="671.5" y="1037" width="120" height="30" as="geometry" />
        </mxCell>
        <mxCell id="Xy0spjIBbxIXqmK404P5-108" value="G252V" style="text;html=1;align=center;verticalAlign=middle;resizable=0;points=[];autosize=1;strokeColor=none;fillColor=none;fontSize=12;fontFamily=Helvetica;fontColor=#000000;" vertex="1" parent="1">
          <mxGeometry x="671.5" y="949" width="60" height="30" as="geometry" />
        </mxCell>
        <mxCell id="Xy0spjIBbxIXqmK404P5-109" value="BN.1.4" style="rounded=0;whiteSpace=wrap;html=1;fillColor=#e1d5e7;strokeColor=#9673a6;fontFamily=Helvetica;fontSize=14;" vertex="1" parent="1">
          <mxGeometry x="67.5" y="967" width="120" height="30" as="geometry" />
        </mxCell>
        <mxCell id="Xy0spjIBbxIXqmK404P5-110" value="BN.5" style="rounded=0;whiteSpace=wrap;html=1;labelBackgroundColor=none;fontFamily=Helvetica;fontSize=14;fillColor=#e1d5e7;strokeColor=#9673a6;" vertex="1" parent="1">
          <mxGeometry x="387.5" y="1067" width="120" height="30" as="geometry" />
        </mxCell>
        <mxCell id="Xy0spjIBbxIXqmK404P5-111" value="B.1.1.7 (Alpha)" style="rounded=0;whiteSpace=wrap;html=1;fillColor=#fff2cc;strokeColor=#d6b656;fontStyle=1;fontSize=16;fontFamily=Helvetica;" vertex="1" parent="1">
          <mxGeometry x="1003.5" y="339" width="164" height="30" as="geometry" />
        </mxCell>
        <mxCell id="Xy0spjIBbxIXqmK404P5-112" value="XBB.3" style="rounded=0;whiteSpace=wrap;html=1;fillColor=#bac8d3;strokeColor=#23445d;fontFamily=Helvetica;fontSize=14;" vertex="1" parent="1">
          <mxGeometry x="671.5" y="1218" width="120" height="30" as="geometry" />
        </mxCell>
        <mxCell id="Xy0spjIBbxIXqmK404P5-113" value="XBB.1" style="rounded=0;whiteSpace=wrap;html=1;fillColor=#bac8d3;strokeColor=#23445d;fontFamily=Helvetica;fontSize=14;" vertex="1" parent="1">
          <mxGeometry x="671.5" y="978" width="120" height="30" as="geometry" />
        </mxCell>
        <mxCell id="Xy0spjIBbxIXqmK404P5-114" value="&lt;span style=&quot;text-align: left; font-size: 14px;&quot;&gt;&lt;u style=&quot;font-size: 14px;&quot;&gt;&lt;font style=&quot;font-size: 14px;&quot;&gt;&lt;b style=&quot;font-size: 14px;&quot;&gt;69-70del,&amp;nbsp;&lt;/b&gt;&lt;/font&gt;&lt;/u&gt;&lt;/span&gt;&lt;u style=&quot;font-size: 14px;&quot;&gt;&lt;b style=&quot;font-size: 14px;&quot;&gt;&lt;font style=&quot;font-size: 14px;&quot;&gt;&lt;font style=&quot;font-size: 14px;&quot;&gt;N&lt;/font&gt;501Y&lt;/font&gt;&lt;/b&gt;&lt;font style=&quot;font-weight: bold; font-size: 14px;&quot; color=&quot;#ff00ff&quot;&gt;@&lt;/font&gt;&lt;font style=&quot;font-weight: bold; font-size: 14px;&quot; color=&quot;#0000ff&quot;&gt;@&lt;/font&gt;&lt;/u&gt;&amp;nbsp;and/or other Spike mutations" style="text;html=1;align=center;verticalAlign=middle;resizable=0;points=[];autosize=1;strokeColor=none;fillColor=none;fontSize=14;fontColor=#000000;fontFamily=Helvetica;" vertex="1" parent="1">
          <mxGeometry x="1190.5" y="329" width="340" height="30" as="geometry" />
        </mxCell>
        <mxCell id="Xy0spjIBbxIXqmK404P5-115" value="BM.1" style="rounded=0;whiteSpace=wrap;html=1;fillColor=#e1d5e7;strokeColor=#9673a6;fontFamily=Helvetica;fontSize=14;" vertex="1" parent="1">
          <mxGeometry x="527.5" y="850" width="120" height="30" as="geometry" />
        </mxCell>
        <mxCell id="Xy0spjIBbxIXqmK404P5-116" value="" style="edgeStyle=orthogonalEdgeStyle;rounded=0;orthogonalLoop=1;jettySize=auto;html=1;fontFamily=Helvetica;fontSize=14;fontColor=#000000;exitX=0.5;exitY=1;exitDx=0;exitDy=0;entryX=0.5;entryY=0;entryDx=0;entryDy=0;" edge="1" parent="1" source="Xy0spjIBbxIXqmK404P5-91" target="Xy0spjIBbxIXqmK404P5-115">
          <mxGeometry relative="1" as="geometry">
            <mxPoint x="517.5" y="836.9999999999998" as="sourcePoint" />
            <mxPoint x="457.5" y="884" as="targetPoint" />
            <Array as="points">
              <mxPoint x="587.5" y="832" />
              <mxPoint x="587.5" y="832" />
            </Array>
          </mxGeometry>
        </mxCell>
        <mxCell id="Xy0spjIBbxIXqmK404P5-117" value="" style="edgeStyle=orthogonalEdgeStyle;rounded=0;orthogonalLoop=1;jettySize=auto;html=1;fontFamily=Helvetica;fontSize=16;fontColor=#000000;" edge="1" parent="1" source="Xy0spjIBbxIXqmK404P5-118" target="Xy0spjIBbxIXqmK404P5-119">
          <mxGeometry relative="1" as="geometry" />
        </mxCell>
        <mxCell id="Xy0spjIBbxIXqmK404P5-118" value="BM.1.1" style="rounded=0;whiteSpace=wrap;html=1;fillColor=#e1d5e7;strokeColor=#9673a6;fontFamily=Helvetica;fontSize=14;" vertex="1" parent="1">
          <mxGeometry x="527.5" y="905" width="120" height="30" as="geometry" />
        </mxCell>
        <mxCell id="Xy0spjIBbxIXqmK404P5-119" value="BM.1.1.1" style="rounded=0;whiteSpace=wrap;html=1;fillColor=#e1d5e7;strokeColor=#9673a6;fontFamily=Helvetica;fontSize=14;" vertex="1" parent="1">
          <mxGeometry x="527.5" y="960" width="120" height="30" as="geometry" />
        </mxCell>
        <mxCell id="Xy0spjIBbxIXqmK404P5-120" value="" style="edgeStyle=orthogonalEdgeStyle;rounded=0;orthogonalLoop=1;jettySize=auto;html=1;fontFamily=Helvetica;fontSize=16;fontColor=#000000;exitX=0.5;exitY=1;exitDx=0;exitDy=0;entryX=0.5;entryY=0;entryDx=0;entryDy=0;" edge="1" parent="1" source="Xy0spjIBbxIXqmK404P5-115" target="Xy0spjIBbxIXqmK404P5-118">
          <mxGeometry relative="1" as="geometry">
            <mxPoint x="597.5" y="944.9999999999998" as="sourcePoint" />
            <mxPoint x="587.5" y="900" as="targetPoint" />
          </mxGeometry>
        </mxCell>
        <mxCell id="Xy0spjIBbxIXqmK404P5-121" value="&lt;span style=&quot;font-size: 13px; font-style: normal; font-variant-ligatures: normal; font-variant-caps: normal; font-weight: 400; letter-spacing: normal; orphans: 2; text-align: left; text-indent: 0px; text-transform: none; widows: 2; word-spacing: 0px; -webkit-text-stroke-width: 0px; background-color: rgb(248, 249, 250); text-decoration-thickness: initial; text-decoration-style: initial; text-decoration-color: initial; float: none; display: inline !important;&quot;&gt;F486S&lt;/span&gt;&lt;span style=&quot;border-color: var(--border-color); font-size: 13px;&quot;&gt;&lt;font style=&quot;border-color: var(--border-color); font-size: 13px;&quot; color=&quot;#ff00ff&quot;&gt;@&lt;/font&gt;&lt;/span&gt;&lt;span style=&quot;border-color: var(--border-color); font-size: 13px;&quot;&gt;&lt;font style=&quot;border-color: var(--border-color); font-size: 13px;&quot; color=&quot;#0000ff&quot;&gt;@&lt;/font&gt;&lt;/span&gt;" style="text;whiteSpace=wrap;html=1;fontSize=13;fontFamily=Helvetica;fontColor=#000000;" vertex="1" parent="1">
          <mxGeometry x="517.5" y="819" width="40" height="30" as="geometry" />
        </mxCell>
        <mxCell id="Xy0spjIBbxIXqmK404P5-122" value="&lt;span style=&quot;font-size: 13px; font-style: normal; font-variant-ligatures: normal; font-variant-caps: normal; font-weight: 400; letter-spacing: normal; orphans: 2; text-align: left; text-indent: 0px; text-transform: none; widows: 2; word-spacing: 0px; -webkit-text-stroke-width: 0px; background-color: rgb(248, 249, 250); text-decoration-thickness: initial; text-decoration-style: initial; text-decoration-color: initial; float: none; display: inline !important;&quot;&gt;F490S&lt;/span&gt;&lt;span style=&quot;border-color: var(--border-color); font-size: 13px;&quot;&gt;&lt;font style=&quot;border-color: var(--border-color); font-size: 13px;&quot; color=&quot;#ff00ff&quot;&gt;@&lt;/font&gt;&lt;/span&gt;&lt;span style=&quot;border-color: var(--border-color); font-size: 13px;&quot;&gt;&lt;font style=&quot;border-color: var(--border-color); font-size: 13px;&quot; color=&quot;#0000ff&quot;&gt;@&lt;/font&gt;&lt;/span&gt;" style="text;whiteSpace=wrap;html=1;fontSize=13;fontFamily=Helvetica;fontColor=#000000;" vertex="1" parent="1">
          <mxGeometry x="516.5" y="931" width="71" height="30" as="geometry" />
        </mxCell>
        <mxCell id="Xy0spjIBbxIXqmK404P5-123" value="" style="edgeStyle=orthogonalEdgeStyle;rounded=0;orthogonalLoop=1;jettySize=auto;html=1;fontFamily=Helvetica;fontSize=18;fontColor=#000000;exitX=0.5;exitY=1;exitDx=0;exitDy=0;entryX=0;entryY=0.5;entryDx=0;entryDy=0;" edge="1" parent="1" source="Xy0spjIBbxIXqmK404P5-69" target="Xy0spjIBbxIXqmK404P5-70">
          <mxGeometry relative="1" as="geometry">
            <Array as="points">
              <mxPoint x="1488.5" y="742" />
            </Array>
            <mxPoint x="1428.5" y="682" as="sourcePoint" />
          </mxGeometry>
        </mxCell>
        <mxCell id="Xy0spjIBbxIXqmK404P5-124" value="BA.4.1" style="rounded=0;whiteSpace=wrap;html=1;fillColor=#ffe6cc;strokeColor=#d79b00;fontFamily=Helvetica;fontSize=14;" vertex="1" parent="1">
          <mxGeometry x="1617.5" y="522" width="120" height="30" as="geometry" />
        </mxCell>
        <mxCell id="Xy0spjIBbxIXqmK404P5-125" value="V3G" style="text;html=1;strokeColor=none;fillColor=none;align=left;verticalAlign=middle;whiteSpace=wrap;rounded=0;fontSize=12;fontFamily=Helvetica;" vertex="1" parent="1">
          <mxGeometry x="1685.5" y="493" width="60" height="20" as="geometry" />
        </mxCell>
        <mxCell id="Xy0spjIBbxIXqmK404P5-126" value="" style="edgeStyle=orthogonalEdgeStyle;rounded=0;orthogonalLoop=1;jettySize=auto;html=1;fontFamily=Helvetica;fontSize=18;fontColor=#000000;exitX=0;exitY=0.5;exitDx=0;exitDy=0;" edge="1" parent="1" source="Xy0spjIBbxIXqmK404P5-127" target="Xy0spjIBbxIXqmK404P5-111">
          <mxGeometry relative="1" as="geometry">
            <mxPoint x="1582.5" y="354" as="sourcePoint" />
          </mxGeometry>
        </mxCell>
        <mxCell id="Xy0spjIBbxIXqmK404P5-127" value="B.1.1" style="rounded=0;whiteSpace=wrap;html=1;fontFamily=Helvetica;fontSize=14;" vertex="1" parent="1">
          <mxGeometry x="1590.5" y="339" width="120" height="30" as="geometry" />
        </mxCell>
        <mxCell id="Xy0spjIBbxIXqmK404P5-128" value="" style="edgeStyle=orthogonalEdgeStyle;rounded=0;orthogonalLoop=1;jettySize=auto;html=1;fontFamily=Helvetica;fontSize=18;fontColor=#000000;entryX=0.5;entryY=0;entryDx=0;entryDy=0;exitX=0.5;exitY=1;exitDx=0;exitDy=0;" edge="1" parent="1" source="Xy0spjIBbxIXqmK404P5-127" target="Xy0spjIBbxIXqmK404P5-3">
          <mxGeometry relative="1" as="geometry">
            <mxPoint x="841.5769230769233" y="423" as="sourcePoint" />
            <mxPoint x="959.5769230769229" y="468" as="targetPoint" />
          </mxGeometry>
        </mxCell>
        <mxCell id="Xy0spjIBbxIXqmK404P5-129" value="" style="edgeStyle=orthogonalEdgeStyle;rounded=0;orthogonalLoop=1;jettySize=auto;html=1;" edge="1" parent="1" source="Xy0spjIBbxIXqmK404P5-130" target="Xy0spjIBbxIXqmK404P5-249">
          <mxGeometry relative="1" as="geometry" />
        </mxCell>
        <mxCell id="Xy0spjIBbxIXqmK404P5-130" value="BF.7" style="rounded=0;whiteSpace=wrap;html=1;fillColor=#dae8fc;strokeColor=#6c8ebf;fontFamily=Helvetica;fontSize=14;" vertex="1" parent="1">
          <mxGeometry x="1616.5" y="831" width="120" height="30" as="geometry" />
        </mxCell>
        <mxCell id="Xy0spjIBbxIXqmK404P5-131" value="BA.4.6" style="rounded=0;whiteSpace=wrap;html=1;fillColor=#ffe6cc;strokeColor=#d79b00;fontFamily=Helvetica;fontSize=14;" vertex="1" parent="1">
          <mxGeometry x="1777.5" y="452" width="120" height="30" as="geometry" />
        </mxCell>
        <mxCell id="Xy0spjIBbxIXqmK404P5-132" value="BF.5" style="rounded=0;whiteSpace=wrap;html=1;fillColor=#dae8fc;strokeColor=#6c8ebf;fontFamily=Helvetica;fontSize=14;" vertex="1" parent="1">
          <mxGeometry x="1616.5" y="782" width="120" height="30" as="geometry" />
        </mxCell>
        <mxCell id="Xy0spjIBbxIXqmK404P5-133" value="" style="edgeStyle=orthogonalEdgeStyle;rounded=0;orthogonalLoop=1;jettySize=auto;html=1;fontFamily=Helvetica;fontSize=18;fontColor=#000000;exitX=0.5;exitY=1;exitDx=0;exitDy=0;entryX=0;entryY=0.5;entryDx=0;entryDy=0;" edge="1" parent="1" source="Xy0spjIBbxIXqmK404P5-69" target="Xy0spjIBbxIXqmK404P5-132">
          <mxGeometry relative="1" as="geometry">
            <Array as="points">
              <mxPoint x="1488.5" y="797" />
            </Array>
            <mxPoint x="1428.5" y="697" as="sourcePoint" />
            <mxPoint x="1325.5" y="637" as="targetPoint" />
          </mxGeometry>
        </mxCell>
        <mxCell id="Xy0spjIBbxIXqmK404P5-134" value="&lt;span style=&quot;font-size: 14px; font-style: normal; font-variant-ligatures: normal; font-variant-caps: normal; font-weight: 400; letter-spacing: normal; orphans: 2; text-align: left; text-indent: 0px; text-transform: none; widows: 2; word-spacing: 0px; -webkit-text-stroke-width: 0px; background-color: rgb(248, 249, 250); text-decoration-thickness: initial; text-decoration-style: initial; text-decoration-color: initial; float: none; display: inline !important;&quot;&gt;A1020S&lt;/span&gt;" style="text;whiteSpace=wrap;html=1;fontSize=14;fontFamily=Helvetica;fontColor=#000000;" vertex="1" parent="1">
          <mxGeometry x="1523.5" y="771" width="60" height="30" as="geometry" />
        </mxCell>
        <mxCell id="Xy0spjIBbxIXqmK404P5-135" value="&lt;span style=&quot;text-align: left; font-size: 13px;&quot;&gt;K356T&lt;/span&gt;" style="text;html=1;align=center;verticalAlign=middle;resizable=0;points=[];autosize=1;strokeColor=none;fillColor=none;fontSize=13;fontColor=#000000;fontFamily=Helvetica;" vertex="1" parent="1">
          <mxGeometry x="324" y="768" width="60" height="30" as="geometry" />
        </mxCell>
        <mxCell id="Xy0spjIBbxIXqmK404P5-136" value="T19I, LPPA24S, V213G, S371F, T376A, D405N, R408S&lt;font color=&quot;#ff00ff&quot; style=&quot;font-size: 13px;&quot;&gt;@&lt;/font&gt;, Q493R&lt;font style=&quot;font-size: 13px;&quot;&gt;&lt;font style=&quot;border-color: var(--border-color); text-align: left; font-size: 13px;&quot; color=&quot;#ff00ff&quot;&gt;@&lt;/font&gt;&lt;font style=&quot;border-color: var(--border-color); text-align: left; font-size: 13px;&quot; color=&quot;#0000ff&quot;&gt;@&lt;/font&gt;&lt;/font&gt;" style="text;html=1;align=center;verticalAlign=middle;resizable=0;points=[];autosize=1;strokeColor=none;fillColor=none;fontSize=13;fontFamily=Helvetica;" vertex="1" parent="1">
          <mxGeometry x="126.5" y="492" width="430" height="30" as="geometry" />
        </mxCell>
        <mxCell id="Xy0spjIBbxIXqmK404P5-137" value="&lt;font style=&quot;font-size: 14px;&quot;&gt;&lt;span style=&quot;color: rgb(33, 33, 33); font-style: normal; font-variant-ligatures: normal; font-variant-caps: normal; letter-spacing: normal; orphans: 2; text-align: start; text-indent: 0px; text-transform: none; widows: 2; word-spacing: 0px; -webkit-text-stroke-width: 0px; background-color: rgb(255, 255, 255); text-decoration-thickness: initial; text-decoration-style: initial; text-decoration-color: initial; float: none; font-size: 14px; display: inline !important;&quot;&gt;&lt;b style=&quot;font-size: 14px;&quot;&gt;&lt;u style=&quot;font-size: 14px;&quot;&gt;L452R&lt;/u&gt;&lt;/b&gt;&lt;span style=&quot;color: rgb(0, 0, 255); background-color: rgb(251, 251, 251); font-size: 14px;&quot;&gt;@&lt;/span&gt;&lt;u style=&quot;font-size: 14px;&quot;&gt;&lt;b style=&quot;font-size: 14px;&quot;&gt;, P681R, and T478K&lt;/b&gt;&lt;/u&gt;&lt;span style=&quot;color: rgb(0, 0, 255); background-color: rgb(251, 251, 251); font-size: 14px;&quot;&gt;@&lt;/span&gt;&lt;/span&gt;&lt;span style=&quot;color: rgb(33, 33, 33); font-style: normal; font-variant-ligatures: normal; font-variant-caps: normal; font-weight: 400; letter-spacing: normal; orphans: 2; text-align: start; text-indent: 0px; text-transform: none; widows: 2; word-spacing: 0px; -webkit-text-stroke-width: 0px; background-color: rgb(255, 255, 255); text-decoration-thickness: initial; text-decoration-style: initial; text-decoration-color: initial; float: none; font-size: 14px; display: inline !important;&quot;&gt;&amp;nbsp;&lt;/span&gt;&lt;span style=&quot;text-align: center; font-size: 14px;&quot;&gt;and/or other Spike mutations&lt;/span&gt;&lt;/font&gt;" style="text;whiteSpace=wrap;html=1;fontSize=14;fontFamily=Helvetica;fontColor=#000000;" vertex="1" parent="1">
          <mxGeometry x="1191.5" y="269" width="390" height="30" as="geometry" />
        </mxCell>
        <mxCell id="Xy0spjIBbxIXqmK404P5-138" value="&lt;font style=&quot;font-size: 18px;&quot;&gt;&lt;b style=&quot;font-size: 18px;&quot;&gt;Nab classes&lt;/b&gt;&lt;/font&gt;" style="swimlane;fontStyle=0;childLayout=stackLayout;horizontal=1;startSize=30;horizontalStack=0;resizeParent=1;resizeParentMax=0;resizeLast=0;collapsible=1;marginBottom=0;whiteSpace=wrap;html=1;fontSize=18;fontFamily=Helvetica;" vertex="1" parent="1">
          <mxGeometry x="1997.5" y="919" width="210" height="230" as="geometry" />
        </mxCell>
        <mxCell id="Xy0spjIBbxIXqmK404P5-139" value="&amp;nbsp;" style="text;strokeColor=none;fillColor=none;align=center;verticalAlign=middle;spacingLeft=4;spacingRight=4;overflow=hidden;points=[[0,0.5],[1,0.5]];portConstraint=eastwest;rotatable=0;whiteSpace=wrap;html=1;fontSize=12;fontFamily=Helvetica;" vertex="1" parent="Xy0spjIBbxIXqmK404P5-138">
          <mxGeometry y="30" width="210" height="10" as="geometry" />
        </mxCell>
        <mxCell id="Xy0spjIBbxIXqmK404P5-140" value="&lt;font color=&quot;#00cccc&quot; style=&quot;font-size: 16px;&quot;&gt;NTD @&lt;/font&gt;" style="text;strokeColor=default;fillColor=none;align=center;verticalAlign=middle;spacingLeft=4;spacingRight=4;overflow=hidden;points=[[0,0.5],[1,0.5]];portConstraint=eastwest;rotatable=0;whiteSpace=wrap;html=1;fontSize=16;fontStyle=0;fontFamily=Helvetica;" vertex="1" parent="Xy0spjIBbxIXqmK404P5-138">
          <mxGeometry y="40" width="210" height="30" as="geometry" />
        </mxCell>
        <mxCell id="Xy0spjIBbxIXqmK404P5-141" value="&lt;font color=&quot;#ff00ff&quot; style=&quot;font-size: 16px;&quot;&gt;RBD 1 @&lt;/font&gt;" style="text;strokeColor=default;fillColor=none;align=center;verticalAlign=middle;spacingLeft=4;spacingRight=4;overflow=hidden;points=[[0,0.5],[1,0.5]];portConstraint=eastwest;rotatable=0;whiteSpace=wrap;html=1;fontSize=16;fontStyle=0;fontFamily=Helvetica;" vertex="1" parent="Xy0spjIBbxIXqmK404P5-138">
          <mxGeometry y="70" width="210" height="30" as="geometry" />
        </mxCell>
        <mxCell id="Xy0spjIBbxIXqmK404P5-142" value="RBD 2 @" style="text;strokeColor=default;fillColor=none;align=center;verticalAlign=middle;spacingLeft=4;spacingRight=4;overflow=hidden;points=[[0,0.5],[1,0.5]];portConstraint=eastwest;rotatable=0;whiteSpace=wrap;html=1;fontSize=16;fontColor=#0000FF;fontStyle=0;fontFamily=Helvetica;" vertex="1" parent="Xy0spjIBbxIXqmK404P5-138">
          <mxGeometry y="100" width="210" height="30" as="geometry" />
        </mxCell>
        <mxCell id="Xy0spjIBbxIXqmK404P5-143" value="RBD 3 @" style="text;strokeColor=default;fillColor=none;align=center;verticalAlign=middle;spacingLeft=4;spacingRight=4;overflow=hidden;points=[[0,0.5],[1,0.5]];portConstraint=eastwest;rotatable=0;whiteSpace=wrap;html=1;fontSize=16;fontColor=#FF0000;fontStyle=0;fontFamily=Helvetica;" vertex="1" parent="Xy0spjIBbxIXqmK404P5-138">
          <mxGeometry y="130" width="210" height="30" as="geometry" />
        </mxCell>
        <mxCell id="Xy0spjIBbxIXqmK404P5-144" value="RBD 4 @" style="text;strokeColor=default;fillColor=none;align=center;verticalAlign=middle;spacingLeft=4;spacingRight=4;overflow=hidden;points=[[0,0.5],[1,0.5]];portConstraint=eastwest;rotatable=0;whiteSpace=wrap;html=1;fontSize=16;fontColor=#006600;fontStyle=0;fontFamily=Helvetica;" vertex="1" parent="Xy0spjIBbxIXqmK404P5-138">
          <mxGeometry y="160" width="210" height="30" as="geometry" />
        </mxCell>
        <mxCell id="Xy0spjIBbxIXqmK404P5-145" value="&amp;nbsp;" style="text;strokeColor=none;fillColor=none;align=center;verticalAlign=middle;spacingLeft=4;spacingRight=4;overflow=hidden;points=[[0,0.5],[1,0.5]];portConstraint=eastwest;rotatable=0;whiteSpace=wrap;html=1;fontSize=12;fontFamily=Helvetica;" vertex="1" parent="Xy0spjIBbxIXqmK404P5-138">
          <mxGeometry y="190" width="210" height="10" as="geometry" />
        </mxCell>
        <mxCell id="Xy0spjIBbxIXqmK404P5-146" value="https://www.nature.com/articles/s41579-021-00573-0" style="text;strokeColor=default;fillColor=none;align=center;verticalAlign=middle;spacingLeft=4;spacingRight=4;overflow=hidden;points=[[0,0.5],[1,0.5]];portConstraint=eastwest;rotatable=0;whiteSpace=wrap;html=1;fontSize=12;fontFamily=Helvetica;" vertex="1" parent="Xy0spjIBbxIXqmK404P5-138">
          <mxGeometry y="200" width="210" height="30" as="geometry" />
        </mxCell>
        <mxCell id="Xy0spjIBbxIXqmK404P5-147" value="R346T&lt;font color=&quot;#0000ff&quot; style=&quot;font-size: 14px;&quot;&gt;@&lt;/font&gt;&lt;font color=&quot;#ff0000&quot; style=&quot;font-size: 14px;&quot;&gt;@&lt;/font&gt;" style="text;html=1;strokeColor=none;fillColor=none;align=left;verticalAlign=middle;whiteSpace=wrap;rounded=0;fontSize=14;fontFamily=Helvetica;" vertex="1" parent="1">
          <mxGeometry x="1517.5" y="825" width="60" height="20" as="geometry" />
        </mxCell>
        <mxCell id="Xy0spjIBbxIXqmK404P5-148" value="R346T&lt;font color=&quot;#0000ff&quot; style=&quot;font-size: 13px;&quot;&gt;@&lt;/font&gt;&lt;font color=&quot;#ff0000&quot; style=&quot;font-size: 13px;&quot;&gt;@&lt;/font&gt;" style="text;html=1;strokeColor=none;fillColor=none;align=left;verticalAlign=middle;whiteSpace=wrap;rounded=0;fontSize=13;fontFamily=Helvetica;" vertex="1" parent="1">
          <mxGeometry x="132.5" y="827" width="60" height="20" as="geometry" />
        </mxCell>
        <mxCell id="Xy0spjIBbxIXqmK404P5-149" value="&lt;span style=&quot;color: rgb(0, 0, 0); font-size: 13px; font-style: normal; font-variant-ligatures: normal; font-variant-caps: normal; font-weight: 400; letter-spacing: normal; orphans: 2; text-align: left; text-indent: 0px; text-transform: none; widows: 2; word-spacing: 0px; -webkit-text-stroke-width: 0px; background-color: rgb(251, 251, 251); text-decoration-thickness: initial; text-decoration-style: initial; text-decoration-color: initial; float: none; display: inline !important;&quot;&gt;R346T&lt;/span&gt;&lt;font style=&quot;border-color: var(--border-color); font-size: 13px; font-style: normal; font-variant-ligatures: normal; font-variant-caps: normal; font-weight: 400; letter-spacing: normal; orphans: 2; text-align: left; text-indent: 0px; text-transform: none; widows: 2; word-spacing: 0px; -webkit-text-stroke-width: 0px; background-color: rgb(251, 251, 251); text-decoration-thickness: initial; text-decoration-style: initial; text-decoration-color: initial;&quot; color=&quot;#0000ff&quot;&gt;@&lt;/font&gt;&lt;font style=&quot;border-color: var(--border-color); font-size: 13px; font-style: normal; font-variant-ligatures: normal; font-variant-caps: normal; font-weight: 400; letter-spacing: normal; orphans: 2; text-align: left; text-indent: 0px; text-transform: none; widows: 2; word-spacing: 0px; -webkit-text-stroke-width: 0px; background-color: rgb(251, 251, 251); text-decoration-thickness: initial; text-decoration-style: initial; text-decoration-color: initial;&quot; color=&quot;#ff0000&quot;&gt;@&lt;/font&gt;" style="text;html=1;align=center;verticalAlign=middle;resizable=0;points=[];autosize=1;strokeColor=none;fillColor=none;fontSize=13;fontColor=#000000;fontFamily=Helvetica;" vertex="1" parent="1">
          <mxGeometry x="505.5" y="877" width="90" height="30" as="geometry" />
        </mxCell>
        <mxCell id="Xy0spjIBbxIXqmK404P5-150" value="T19I, LPPA24S, 69-70del, V213G, S371F, T376A, D405N, R408S&lt;font color=&quot;#ff00ff&quot; style=&quot;font-size: 13px;&quot;&gt;@&lt;/font&gt;, L452R&lt;font color=&quot;#0000ff&quot; style=&quot;font-size: 13px;&quot;&gt;@&lt;/font&gt;, F486V&lt;font style=&quot;font-size: 13px;&quot;&gt;&lt;font style=&quot;border-color: var(--border-color); font-size: 13px;&quot; color=&quot;#ff00ff&quot;&gt;@&lt;/font&gt;&lt;font style=&quot;border-color: var(--border-color); font-size: 13px;&quot; color=&quot;#0000ff&quot;&gt;@&lt;/font&gt;&lt;/font&gt;" style="text;html=1;align=left;verticalAlign=middle;resizable=0;points=[];autosize=1;strokeColor=none;fillColor=none;fontSize=13;fontColor=#000000;fontFamily=Helvetica;" vertex="1" parent="1">
          <mxGeometry x="848.5" y="446" width="550" height="30" as="geometry" />
        </mxCell>
        <mxCell id="Xy0spjIBbxIXqmK404P5-151" value="BQ.1.23" style="rounded=0;whiteSpace=wrap;html=1;fillColor=#d5e8d4;strokeColor=#82b366;fontFamily=Helvetica;fontSize=14;" vertex="1" parent="1">
          <mxGeometry x="1428.5" y="1082" width="120" height="30" as="geometry" />
        </mxCell>
        <mxCell id="Xy0spjIBbxIXqmK404P5-152" value="Y144del" style="text;html=1;strokeColor=none;fillColor=none;align=center;verticalAlign=middle;whiteSpace=wrap;rounded=0;fontSize=13;fontFamily=Helvetica;" vertex="1" parent="1">
          <mxGeometry x="1353.5" y="1078" width="60" height="20" as="geometry" />
        </mxCell>
        <mxCell id="Xy0spjIBbxIXqmK404P5-153" value="BQ.1.1.10" style="rounded=0;whiteSpace=wrap;html=1;fillColor=#d5e8d4;strokeColor=#82b366;fontFamily=Helvetica;fontSize=14;" vertex="1" parent="1">
          <mxGeometry x="1617.5" y="935" width="120" height="30" as="geometry" />
        </mxCell>
        <mxCell id="Xy0spjIBbxIXqmK404P5-154" value="Y144del" style="text;html=1;strokeColor=none;fillColor=none;align=left;verticalAlign=middle;whiteSpace=wrap;rounded=0;fontSize=13;fontFamily=Helvetica;" vertex="1" parent="1">
          <mxGeometry x="1555.5" y="932" width="60" height="20" as="geometry" />
        </mxCell>
        <mxCell id="Xy0spjIBbxIXqmK404P5-155" value="BN.1.5" style="rounded=0;whiteSpace=wrap;html=1;fillColor=#e1d5e7;strokeColor=#9673a6;fontFamily=Helvetica;fontSize=14;" vertex="1" parent="1">
          <mxGeometry x="67.5" y="1022" width="120" height="30" as="geometry" />
        </mxCell>
        <mxCell id="Xy0spjIBbxIXqmK404P5-156" value="XBB.1.5" style="rounded=0;whiteSpace=wrap;html=1;fillColor=#bac8d3;strokeColor=#23445d;fontFamily=Helvetica;fontSize=14;" vertex="1" parent="1">
          <mxGeometry x="527.5" y="1038" width="120" height="30" as="geometry" />
        </mxCell>
        <mxCell id="Xy0spjIBbxIXqmK404P5-157" value="" style="edgeStyle=orthogonalEdgeStyle;rounded=0;orthogonalLoop=1;jettySize=auto;html=1;fontFamily=Helvetica;fontSize=14;fontColor=#000000;entryX=0.5;entryY=0;entryDx=0;entryDy=0;exitX=0;exitY=1;exitDx=0;exitDy=0;" edge="1" parent="1" source="Xy0spjIBbxIXqmK404P5-113" target="Xy0spjIBbxIXqmK404P5-156">
          <mxGeometry relative="1" as="geometry">
            <mxPoint x="667.5" y="1001" as="sourcePoint" />
            <mxPoint x="741.5" y="1065" as="targetPoint" />
            <Array as="points">
              <mxPoint x="587.5" y="1008" />
            </Array>
          </mxGeometry>
        </mxCell>
        <mxCell id="Xy0spjIBbxIXqmK404P5-158" value="F486P&lt;font color=&quot;#ff00ff&quot; style=&quot;font-size: 13px;&quot;&gt;@&lt;/font&gt;&lt;font color=&quot;#0000ff&quot; style=&quot;font-size: 13px;&quot;&gt;@&lt;/font&gt;" style="text;html=1;align=center;verticalAlign=middle;resizable=0;points=[];autosize=1;strokeColor=none;fillColor=none;fontSize=13;fontFamily=Helvetica;fontColor=#000000;" vertex="1" parent="1">
          <mxGeometry x="579.5" y="1002" width="90" height="30" as="geometry" />
        </mxCell>
        <mxCell id="Xy0spjIBbxIXqmK404P5-159" value="B.1.351 (Beta)" style="rounded=0;whiteSpace=wrap;html=1;fillColor=#fff2cc;strokeColor=#d6b656;fontStyle=1;fontSize=16;fontFamily=Helvetica;" vertex="1" parent="1">
          <mxGeometry x="2099" y="279" width="164" height="30" as="geometry" />
        </mxCell>
        <mxCell id="Xy0spjIBbxIXqmK404P5-160" value="&lt;u style=&quot;color: rgb(0, 0, 0); font-family: Helvetica; font-size: 14px; font-style: normal; font-variant-ligatures: normal; font-variant-caps: normal; font-weight: 400; letter-spacing: normal; orphans: 2; text-indent: 0px; text-transform: none; widows: 2; word-spacing: 0px; -webkit-text-stroke-width: 0px; text-align: center; background-color: rgb(255, 255, 255);&quot;&gt;&lt;b style=&quot;font-size: 14px;&quot;&gt;N501Y&lt;font color=&quot;#ff00ff&quot; style=&quot;font-size: 14px;&quot;&gt;@&lt;/font&gt;&lt;font color=&quot;#0000ff&quot; style=&quot;font-size: 14px;&quot;&gt;@&lt;/font&gt;&lt;/b&gt;&lt;/u&gt;&lt;font style=&quot;font-family: Helvetica; font-size: 14px; font-style: normal; font-variant-ligatures: normal; font-variant-caps: normal; font-weight: 400; letter-spacing: normal; orphans: 2; text-indent: 0px; text-transform: none; widows: 2; word-spacing: 0px; -webkit-text-stroke-width: 0px; background-color: initial; text-decoration-thickness: initial; text-decoration-style: initial; text-decoration-color: initial; text-align: center;&quot; color=&quot;#212121&quot;&gt;&lt;span style=&quot;background-color: rgb(255, 255, 255); font-size: 14px;&quot;&gt;&lt;b style=&quot;font-size: 14px;&quot;&gt;&lt;u style=&quot;font-size: 14px;&quot;&gt;, and&lt;/u&gt;&lt;/b&gt;&lt;/span&gt;&lt;/font&gt;&lt;u style=&quot;color: rgb(0, 0, 0); font-family: Helvetica; font-size: 14px; font-style: normal; font-variant-ligatures: normal; font-variant-caps: normal; font-weight: 400; letter-spacing: normal; orphans: 2; text-indent: 0px; text-transform: none; widows: 2; word-spacing: 0px; -webkit-text-stroke-width: 0px; text-align: center; background-color: rgb(255, 255, 255);&quot;&gt;&lt;b style=&quot;font-size: 14px;&quot;&gt;&lt;font color=&quot;#212121&quot; style=&quot;font-size: 14px;&quot;&gt;&amp;nbsp;E484K&lt;/font&gt;&lt;font color=&quot;#ff00ff&quot; style=&quot;font-size: 14px;&quot;&gt;@&lt;/font&gt;&lt;font color=&quot;#0000ff&quot; style=&quot;font-size: 14px;&quot;&gt;@&amp;nbsp;&lt;/font&gt;&lt;/b&gt;&lt;/u&gt;&lt;span style=&quot;background-color: initial; font-size: 14px;&quot;&gt;and/or other Spike mutations&lt;/span&gt;&lt;u style=&quot;color: rgb(0, 0, 0); font-family: Helvetica; font-size: 14px; font-style: normal; font-variant-ligatures: normal; font-variant-caps: normal; font-weight: 400; letter-spacing: normal; orphans: 2; text-indent: 0px; text-transform: none; widows: 2; word-spacing: 0px; -webkit-text-stroke-width: 0px; text-align: center; background-color: rgb(255, 255, 255);&quot;&gt;&lt;b style=&quot;font-size: 14px;&quot;&gt;&lt;font color=&quot;#0000ff&quot; style=&quot;font-size: 14px;&quot;&gt;&lt;br style=&quot;font-size: 14px;&quot;&gt;&lt;/font&gt;&lt;/b&gt;&lt;/u&gt;" style="text;whiteSpace=wrap;html=1;fontColor=#000000;fontSize=14;" vertex="1" parent="1">
          <mxGeometry x="1720.5" y="269" width="372" height="40" as="geometry" />
        </mxCell>
        <mxCell id="Xy0spjIBbxIXqmK404P5-161" value="" style="endArrow=classic;html=1;rounded=0;exitX=1;exitY=0.5;exitDx=0;exitDy=0;entryX=0;entryY=0.5;entryDx=0;entryDy=0;startArrow=none;fontFamily=Helvetica;" edge="1" parent="1" source="Xy0spjIBbxIXqmK404P5-65" target="Xy0spjIBbxIXqmK404P5-159">
          <mxGeometry width="50" height="50" relative="1" as="geometry">
            <mxPoint x="1600.5" y="304" as="sourcePoint" />
            <mxPoint x="1207.5" y="304" as="targetPoint" />
            <Array as="points" />
          </mxGeometry>
        </mxCell>
        <mxCell id="Xy0spjIBbxIXqmK404P5-162" value="" style="group" vertex="1" connectable="0" parent="1">
          <mxGeometry x="2037.5" y="439" width="170" height="444" as="geometry" />
        </mxCell>
        <mxCell id="Xy0spjIBbxIXqmK404P5-163" value="&lt;font style=&quot;font-size: 24px;&quot;&gt;Legend&lt;/font&gt;" style="rounded=0;whiteSpace=wrap;html=1;verticalAlign=top;fontFamily=Helvetica;" vertex="1" parent="Xy0spjIBbxIXqmK404P5-162">
          <mxGeometry width="170" height="444" as="geometry" />
        </mxCell>
        <mxCell id="Xy0spjIBbxIXqmK404P5-164" value="BA.2.75" style="rounded=0;whiteSpace=wrap;html=1;fillColor=#e1d5e7;strokeColor=#9673a6;fontSize=14;fontFamily=Helvetica;" vertex="1" parent="Xy0spjIBbxIXqmK404P5-162">
          <mxGeometry x="25" y="46" width="120" height="30" as="geometry" />
        </mxCell>
        <mxCell id="Xy0spjIBbxIXqmK404P5-165" value="BA.2.10" style="rounded=0;whiteSpace=wrap;html=1;fillColor=#f8cecc;strokeColor=#b85450;fontSize=14;fontFamily=Helvetica;" vertex="1" parent="Xy0spjIBbxIXqmK404P5-162">
          <mxGeometry x="25" y="95" width="120" height="30" as="geometry" />
        </mxCell>
        <mxCell id="Xy0spjIBbxIXqmK404P5-166" value="BA.5.3" style="rounded=0;whiteSpace=wrap;html=1;fillColor=#d5e8d4;strokeColor=#82b366;fontSize=14;fontFamily=Helvetica;" vertex="1" parent="Xy0spjIBbxIXqmK404P5-162">
          <mxGeometry x="25" y="146" width="120" height="30" as="geometry" />
        </mxCell>
        <mxCell id="Xy0spjIBbxIXqmK404P5-167" value="BA.5.2" style="rounded=0;whiteSpace=wrap;html=1;fillColor=#dae8fc;strokeColor=#6c8ebf;fontSize=14;fontFamily=Helvetica;" vertex="1" parent="Xy0spjIBbxIXqmK404P5-162">
          <mxGeometry x="25" y="195" width="120" height="30" as="geometry" />
        </mxCell>
        <mxCell id="Xy0spjIBbxIXqmK404P5-168" value="BA.2.3" style="rounded=0;whiteSpace=wrap;html=1;fillColor=#e3c800;fontColor=#000000;strokeColor=#B09500;fontSize=14;fontFamily=Helvetica;" vertex="1" parent="Xy0spjIBbxIXqmK404P5-162">
          <mxGeometry x="25" y="246" width="120" height="30" as="geometry" />
        </mxCell>
        <mxCell id="Xy0spjIBbxIXqmK404P5-169" value="XBB" style="rounded=0;whiteSpace=wrap;html=1;fillColor=#bac8d3;strokeColor=#23445d;fontSize=14;fontFamily=Helvetica;" vertex="1" parent="Xy0spjIBbxIXqmK404P5-162">
          <mxGeometry x="25" y="296" width="120" height="30" as="geometry" />
        </mxCell>
        <mxCell id="Xy0spjIBbxIXqmK404P5-170" value="BA.4" style="rounded=0;whiteSpace=wrap;html=1;fillColor=#ffe6cc;strokeColor=#d79b00;fontSize=14;fontFamily=Helvetica;" vertex="1" parent="Xy0spjIBbxIXqmK404P5-162">
          <mxGeometry x="25" y="349" width="120" height="30" as="geometry" />
        </mxCell>
        <mxCell id="Xy0spjIBbxIXqmK404P5-171" value="BA.2.3.20" style="rounded=0;whiteSpace=wrap;html=1;fillColor=#ffff88;strokeColor=#36393d;fontSize=14;fontFamily=Helvetica;" vertex="1" parent="Xy0spjIBbxIXqmK404P5-162">
          <mxGeometry x="26" y="400" width="120" height="30" as="geometry" />
        </mxCell>
        <mxCell id="Xy0spjIBbxIXqmK404P5-172" value="" style="edgeStyle=orthogonalEdgeStyle;rounded=0;orthogonalLoop=1;jettySize=auto;html=1;exitX=0.5;exitY=1;exitDx=0;exitDy=0;entryX=0;entryY=0.5;entryDx=0;entryDy=0;" edge="1" parent="1" source="Xy0spjIBbxIXqmK404P5-174" target="Xy0spjIBbxIXqmK404P5-175">
          <mxGeometry relative="1" as="geometry" />
        </mxCell>
        <mxCell id="Xy0spjIBbxIXqmK404P5-173" value="" style="edgeStyle=orthogonalEdgeStyle;rounded=0;orthogonalLoop=1;jettySize=auto;html=1;fontColor=#000000;" edge="1" parent="1" source="Xy0spjIBbxIXqmK404P5-174" target="Xy0spjIBbxIXqmK404P5-18">
          <mxGeometry relative="1" as="geometry" />
        </mxCell>
        <mxCell id="Xy0spjIBbxIXqmK404P5-174" value="BA.2.3.20" style="rounded=0;whiteSpace=wrap;html=1;fillColor=#fff2cc;strokeColor=#d6b656;fontStyle=1;fontSize=16;fontFamily=Helvetica;" vertex="1" parent="1">
          <mxGeometry x="811.5" y="674" width="120" height="30" as="geometry" />
        </mxCell>
        <mxCell id="Xy0spjIBbxIXqmK404P5-175" value="CM.1" style="rounded=0;whiteSpace=wrap;html=1;fillColor=#ffff88;strokeColor=#36393d;fontSize=14;fontFamily=Helvetica;" vertex="1" parent="1">
          <mxGeometry x="956.5" y="731" width="120" height="30" as="geometry" />
        </mxCell>
        <mxCell id="Xy0spjIBbxIXqmK404P5-176" value="" style="edgeStyle=orthogonalEdgeStyle;rounded=0;orthogonalLoop=1;jettySize=auto;html=1;fontSize=13;" edge="1" parent="1" source="Xy0spjIBbxIXqmK404P5-177" target="Xy0spjIBbxIXqmK404P5-194">
          <mxGeometry relative="1" as="geometry" />
        </mxCell>
        <mxCell id="Xy0spjIBbxIXqmK404P5-177" value="CM.2" style="rounded=0;whiteSpace=wrap;html=1;fillColor=#ffff88;strokeColor=#36393d;fontSize=14;fontFamily=Helvetica;" vertex="1" parent="1">
          <mxGeometry x="956.5" y="782" width="120" height="30" as="geometry" />
        </mxCell>
        <mxCell id="Xy0spjIBbxIXqmK404P5-178" value="" style="edgeStyle=orthogonalEdgeStyle;rounded=0;orthogonalLoop=1;jettySize=auto;html=1;exitX=0.5;exitY=1;exitDx=0;exitDy=0;entryX=0;entryY=0.5;entryDx=0;entryDy=0;" edge="1" parent="1" source="Xy0spjIBbxIXqmK404P5-174" target="Xy0spjIBbxIXqmK404P5-177">
          <mxGeometry relative="1" as="geometry">
            <mxPoint x="881.4999999999995" y="714" as="sourcePoint" />
            <mxPoint x="966.4999999999995" y="764" as="targetPoint" />
          </mxGeometry>
        </mxCell>
        <mxCell id="Xy0spjIBbxIXqmK404P5-179" value="CM.3" style="rounded=0;whiteSpace=wrap;html=1;fillColor=#ffff88;strokeColor=#36393d;fontSize=14;fontFamily=Helvetica;" vertex="1" parent="1">
          <mxGeometry x="956.5" y="835" width="120" height="30" as="geometry" />
        </mxCell>
        <mxCell id="Xy0spjIBbxIXqmK404P5-180" value="" style="edgeStyle=orthogonalEdgeStyle;rounded=0;orthogonalLoop=1;jettySize=auto;html=1;exitX=0.5;exitY=1;exitDx=0;exitDy=0;entryX=0;entryY=0.5;entryDx=0;entryDy=0;" edge="1" parent="1" source="Xy0spjIBbxIXqmK404P5-174" target="Xy0spjIBbxIXqmK404P5-179">
          <mxGeometry relative="1" as="geometry">
            <mxPoint x="881.4999999999995" y="714" as="sourcePoint" />
            <mxPoint x="966.4999999999995" y="832" as="targetPoint" />
          </mxGeometry>
        </mxCell>
        <mxCell id="Xy0spjIBbxIXqmK404P5-181" value="" style="edgeStyle=orthogonalEdgeStyle;rounded=0;orthogonalLoop=1;jettySize=auto;html=1;fontSize=14;" edge="1" parent="1" source="Xy0spjIBbxIXqmK404P5-182" target="Xy0spjIBbxIXqmK404P5-195">
          <mxGeometry relative="1" as="geometry" />
        </mxCell>
        <mxCell id="Xy0spjIBbxIXqmK404P5-182" value="CM.4" style="rounded=0;whiteSpace=wrap;html=1;fillColor=#ffff88;strokeColor=#36393d;fontSize=14;fontFamily=Helvetica;" vertex="1" parent="1">
          <mxGeometry x="956.5" y="886" width="120" height="30" as="geometry" />
        </mxCell>
        <mxCell id="Xy0spjIBbxIXqmK404P5-183" value="" style="edgeStyle=orthogonalEdgeStyle;rounded=0;orthogonalLoop=1;jettySize=auto;html=1;exitX=0.5;exitY=1;exitDx=0;exitDy=0;entryX=0;entryY=0.5;entryDx=0;entryDy=0;" edge="1" parent="1" source="Xy0spjIBbxIXqmK404P5-174" target="Xy0spjIBbxIXqmK404P5-182">
          <mxGeometry relative="1" as="geometry">
            <mxPoint x="881.4999999999995" y="714" as="sourcePoint" />
            <mxPoint x="966.4999999999995" y="902" as="targetPoint" />
          </mxGeometry>
        </mxCell>
        <mxCell id="Xy0spjIBbxIXqmK404P5-184" value="" style="edgeStyle=orthogonalEdgeStyle;rounded=0;orthogonalLoop=1;jettySize=auto;html=1;fontSize=14;" edge="1" parent="1" source="Xy0spjIBbxIXqmK404P5-185" target="Xy0spjIBbxIXqmK404P5-196">
          <mxGeometry relative="1" as="geometry" />
        </mxCell>
        <mxCell id="Xy0spjIBbxIXqmK404P5-185" value="CM.5" style="rounded=0;whiteSpace=wrap;html=1;fillColor=#ffff88;strokeColor=#36393d;fontSize=14;fontFamily=Helvetica;" vertex="1" parent="1">
          <mxGeometry x="956.5" y="936" width="120" height="30" as="geometry" />
        </mxCell>
        <mxCell id="Xy0spjIBbxIXqmK404P5-186" value="" style="edgeStyle=orthogonalEdgeStyle;rounded=0;orthogonalLoop=1;jettySize=auto;html=1;exitX=0.5;exitY=1;exitDx=0;exitDy=0;entryX=0;entryY=0.5;entryDx=0;entryDy=0;" edge="1" parent="1" source="Xy0spjIBbxIXqmK404P5-174" target="Xy0spjIBbxIXqmK404P5-185">
          <mxGeometry relative="1" as="geometry">
            <mxPoint x="881.4999999999995" y="714" as="sourcePoint" />
            <mxPoint x="966.4999999999995" y="972" as="targetPoint" />
          </mxGeometry>
        </mxCell>
        <mxCell id="Xy0spjIBbxIXqmK404P5-187" value="CM.6" style="rounded=0;whiteSpace=wrap;html=1;fillColor=#ffff88;strokeColor=#36393d;fontSize=14;fontFamily=Helvetica;" vertex="1" parent="1">
          <mxGeometry x="956.5" y="986" width="120" height="30" as="geometry" />
        </mxCell>
        <mxCell id="Xy0spjIBbxIXqmK404P5-188" value="" style="edgeStyle=orthogonalEdgeStyle;rounded=0;orthogonalLoop=1;jettySize=auto;html=1;exitX=0.5;exitY=1;exitDx=0;exitDy=0;entryX=0;entryY=0.5;entryDx=0;entryDy=0;" edge="1" parent="1" source="Xy0spjIBbxIXqmK404P5-174" target="Xy0spjIBbxIXqmK404P5-187">
          <mxGeometry relative="1" as="geometry">
            <mxPoint x="881.4999999999995" y="714" as="sourcePoint" />
            <mxPoint x="966.4999999999995" y="1042" as="targetPoint" />
          </mxGeometry>
        </mxCell>
        <mxCell id="Xy0spjIBbxIXqmK404P5-189" value="" style="edgeStyle=orthogonalEdgeStyle;rounded=0;orthogonalLoop=1;jettySize=auto;html=1;fontSize=14;" edge="1" parent="1" source="Xy0spjIBbxIXqmK404P5-190" target="Xy0spjIBbxIXqmK404P5-203">
          <mxGeometry relative="1" as="geometry" />
        </mxCell>
        <mxCell id="Xy0spjIBbxIXqmK404P5-190" value="CM.8" style="rounded=0;whiteSpace=wrap;html=1;fillColor=#ffff88;strokeColor=#36393d;fontSize=14;fontFamily=Helvetica;" vertex="1" parent="1">
          <mxGeometry x="956.5" y="1084" width="120" height="30" as="geometry" />
        </mxCell>
        <mxCell id="Xy0spjIBbxIXqmK404P5-191" value="" style="edgeStyle=orthogonalEdgeStyle;rounded=0;orthogonalLoop=1;jettySize=auto;html=1;exitX=0.5;exitY=1;exitDx=0;exitDy=0;entryX=0;entryY=0.5;entryDx=0;entryDy=0;" edge="1" parent="1" source="Xy0spjIBbxIXqmK404P5-174" target="Xy0spjIBbxIXqmK404P5-190">
          <mxGeometry relative="1" as="geometry">
            <mxPoint x="881.4999999999995" y="714" as="sourcePoint" />
            <mxPoint x="966.4999999999995" y="1112" as="targetPoint" />
          </mxGeometry>
        </mxCell>
        <mxCell id="Xy0spjIBbxIXqmK404P5-192" value="CM.9" style="rounded=0;whiteSpace=wrap;html=1;fillColor=#ffff88;strokeColor=#36393d;fontSize=14;fontFamily=Helvetica;" vertex="1" parent="1">
          <mxGeometry x="956.5" y="1134" width="120" height="30" as="geometry" />
        </mxCell>
        <mxCell id="Xy0spjIBbxIXqmK404P5-193" value="" style="edgeStyle=orthogonalEdgeStyle;rounded=0;orthogonalLoop=1;jettySize=auto;html=1;exitX=0.5;exitY=1;exitDx=0;exitDy=0;entryX=0;entryY=0.5;entryDx=0;entryDy=0;" edge="1" parent="1" source="Xy0spjIBbxIXqmK404P5-174" target="Xy0spjIBbxIXqmK404P5-192">
          <mxGeometry relative="1" as="geometry">
            <mxPoint x="881.4999999999995" y="714" as="sourcePoint" />
            <mxPoint x="966.4999999999995" y="1063" as="targetPoint" />
          </mxGeometry>
        </mxCell>
        <mxCell id="Xy0spjIBbxIXqmK404P5-194" value="CM.2.1" style="rounded=0;whiteSpace=wrap;html=1;fillColor=#ffff88;strokeColor=#36393d;fontSize=14;fontFamily=Helvetica;" vertex="1" parent="1">
          <mxGeometry x="1148.5" y="782" width="120" height="30" as="geometry" />
        </mxCell>
        <mxCell id="Xy0spjIBbxIXqmK404P5-195" value="CM.4.1" style="rounded=0;whiteSpace=wrap;html=1;fillColor=#ffff88;strokeColor=#36393d;fontSize=14;fontFamily=Helvetica;" vertex="1" parent="1">
          <mxGeometry x="1150.5" y="886" width="120" height="30" as="geometry" />
        </mxCell>
        <mxCell id="Xy0spjIBbxIXqmK404P5-196" value="CM.5.1" style="rounded=0;whiteSpace=wrap;html=1;fillColor=#ffff88;strokeColor=#36393d;fontSize=14;fontFamily=Helvetica;" vertex="1" parent="1">
          <mxGeometry x="1150.5" y="936" width="120" height="30" as="geometry" />
        </mxCell>
        <mxCell id="Xy0spjIBbxIXqmK404P5-197" value="CM.5.2" style="rounded=0;whiteSpace=wrap;html=1;fillColor=#ffff88;strokeColor=#36393d;fontSize=14;fontFamily=Helvetica;" vertex="1" parent="1">
          <mxGeometry x="1150.5" y="986" width="120" height="30" as="geometry" />
        </mxCell>
        <mxCell id="Xy0spjIBbxIXqmK404P5-198" value="" style="edgeStyle=orthogonalEdgeStyle;rounded=0;orthogonalLoop=1;jettySize=auto;html=1;entryX=0;entryY=0.5;entryDx=0;entryDy=0;exitX=1;exitY=0.5;exitDx=0;exitDy=0;startArrow=none;fontSize=14;" edge="1" parent="1" source="Xy0spjIBbxIXqmK404P5-185" target="Xy0spjIBbxIXqmK404P5-197">
          <mxGeometry relative="1" as="geometry">
            <mxPoint x="1110.4999999999995" y="963" as="sourcePoint" />
            <mxPoint x="1175.4999999999995" y="963" as="targetPoint" />
            <Array as="points">
              <mxPoint x="1087.5" y="951" />
              <mxPoint x="1087.5" y="1001" />
            </Array>
          </mxGeometry>
        </mxCell>
        <mxCell id="Xy0spjIBbxIXqmK404P5-199" value="CM.6.1" style="rounded=0;whiteSpace=wrap;html=1;fillColor=#ffff88;strokeColor=#36393d;fontSize=14;fontFamily=Helvetica;" vertex="1" parent="1">
          <mxGeometry x="1150.5" y="1037" width="120" height="30" as="geometry" />
        </mxCell>
        <mxCell id="Xy0spjIBbxIXqmK404P5-200" value="" style="edgeStyle=orthogonalEdgeStyle;rounded=0;orthogonalLoop=1;jettySize=auto;html=1;entryX=0;entryY=0.5;entryDx=0;entryDy=0;exitX=1;exitY=1;exitDx=0;exitDy=0;fontSize=14;" edge="1" parent="1" source="Xy0spjIBbxIXqmK404P5-187" target="Xy0spjIBbxIXqmK404P5-199">
          <mxGeometry relative="1" as="geometry">
            <mxPoint x="1086.4999999999995" y="961" as="sourcePoint" />
            <mxPoint x="1151.4999999999995" y="961" as="targetPoint" />
            <Array as="points">
              <mxPoint x="1087.5" y="1016" />
              <mxPoint x="1087.5" y="1052" />
            </Array>
          </mxGeometry>
        </mxCell>
        <mxCell id="Xy0spjIBbxIXqmK404P5-201" value="CM.7" style="rounded=0;whiteSpace=wrap;html=1;fillColor=#ffff88;strokeColor=#36393d;fontSize=14;fontFamily=Helvetica;" vertex="1" parent="1">
          <mxGeometry x="956.5" y="1037" width="120" height="30" as="geometry" />
        </mxCell>
        <mxCell id="Xy0spjIBbxIXqmK404P5-202" value="" style="edgeStyle=orthogonalEdgeStyle;rounded=0;orthogonalLoop=1;jettySize=auto;html=1;exitX=0.5;exitY=1;exitDx=0;exitDy=0;entryX=0;entryY=0.5;entryDx=0;entryDy=0;" edge="1" parent="1" source="Xy0spjIBbxIXqmK404P5-174" target="Xy0spjIBbxIXqmK404P5-201">
          <mxGeometry relative="1" as="geometry">
            <mxPoint x="881.4999999999995" y="714" as="sourcePoint" />
            <mxPoint x="966.4999999999995" y="1111" as="targetPoint" />
          </mxGeometry>
        </mxCell>
        <mxCell id="Xy0spjIBbxIXqmK404P5-203" value="CM.8.1" style="rounded=0;whiteSpace=wrap;html=1;fillColor=#ffff88;strokeColor=#36393d;fontSize=14;fontFamily=Helvetica;" vertex="1" parent="1">
          <mxGeometry x="1150.5" y="1084" width="120" height="30" as="geometry" />
        </mxCell>
        <mxCell id="Xy0spjIBbxIXqmK404P5-204" value="N17S" style="text;html=1;strokeColor=none;fillColor=none;align=center;verticalAlign=middle;whiteSpace=wrap;rounded=0;fontSize=13;fontFamily=Helvetica;" vertex="1" parent="1">
          <mxGeometry x="880.5" y="727" width="60" height="20" as="geometry" />
        </mxCell>
        <mxCell id="Xy0spjIBbxIXqmK404P5-205" value="F486S&lt;span style=&quot;border-color: var(--border-color); text-align: left; font-size: 13px;&quot;&gt;&lt;font style=&quot;border-color: var(--border-color); font-size: 13px;&quot; color=&quot;#ff00ff&quot;&gt;@&lt;/font&gt;&lt;/span&gt;&lt;span style=&quot;border-color: var(--border-color); text-align: left; font-size: 13px;&quot;&gt;&lt;font style=&quot;border-color: var(--border-color); font-size: 13px;&quot; color=&quot;#0000ff&quot;&gt;@&lt;/font&gt;&lt;/span&gt;" style="text;html=1;strokeColor=none;fillColor=none;align=center;verticalAlign=middle;whiteSpace=wrap;rounded=0;fontSize=13;fontFamily=Helvetica;" vertex="1" parent="1">
          <mxGeometry x="1081.5" y="775" width="60" height="20" as="geometry" />
        </mxCell>
        <mxCell id="Xy0spjIBbxIXqmK404P5-206" value="G485D&lt;span style=&quot;color: rgb(0, 0, 255); text-align: left; font-size: 13px;&quot;&gt;@&lt;/span&gt;" style="text;html=1;strokeColor=none;fillColor=none;align=center;verticalAlign=middle;whiteSpace=wrap;rounded=0;fontSize=13;fontFamily=Helvetica;" vertex="1" parent="1">
          <mxGeometry x="880.5" y="830" width="60" height="20" as="geometry" />
        </mxCell>
        <mxCell id="Xy0spjIBbxIXqmK404P5-207" value="K478R&lt;span style=&quot;color: rgb(0, 0, 255); text-align: left; font-size: 13px;&quot;&gt;@&lt;/span&gt;" style="text;html=1;strokeColor=none;fillColor=none;align=center;verticalAlign=middle;whiteSpace=wrap;rounded=0;fontSize=13;fontFamily=Helvetica;" vertex="1" parent="1">
          <mxGeometry x="1081.5" y="880" width="60" height="20" as="geometry" />
        </mxCell>
        <mxCell id="Xy0spjIBbxIXqmK404P5-208" value="Q675R" style="text;html=1;strokeColor=none;fillColor=none;align=right;verticalAlign=middle;whiteSpace=wrap;rounded=0;fontSize=13;fontFamily=Helvetica;" vertex="1" parent="1">
          <mxGeometry x="1078.5" y="931" width="60" height="20" as="geometry" />
        </mxCell>
        <mxCell id="Xy0spjIBbxIXqmK404P5-209" value="A348S" style="text;html=1;strokeColor=none;fillColor=none;align=center;verticalAlign=middle;whiteSpace=wrap;rounded=0;fontSize=13;fontFamily=Helvetica;" vertex="1" parent="1">
          <mxGeometry x="1083.5" y="1031" width="60" height="20" as="geometry" />
        </mxCell>
        <mxCell id="Xy0spjIBbxIXqmK404P5-210" value="F486S&lt;span style=&quot;border-color: var(--border-color); text-align: left; font-size: 13px;&quot;&gt;&lt;font style=&quot;border-color: var(--border-color); font-size: 13px;&quot; color=&quot;#ff00ff&quot;&gt;@&lt;/font&gt;&lt;/span&gt;&lt;span style=&quot;border-color: var(--border-color); text-align: left; font-size: 13px;&quot;&gt;&lt;font style=&quot;border-color: var(--border-color); font-size: 13px;&quot; color=&quot;#0000ff&quot;&gt;@&lt;/font&gt;&lt;/span&gt;" style="text;html=1;strokeColor=none;fillColor=none;align=center;verticalAlign=middle;whiteSpace=wrap;rounded=0;fontSize=13;fontFamily=Helvetica;" vertex="1" parent="1">
          <mxGeometry x="881.5" y="1032" width="60" height="20" as="geometry" />
        </mxCell>
        <mxCell id="Xy0spjIBbxIXqmK404P5-211" value="G446S&lt;font style=&quot;border-color: var(--border-color); text-align: left; font-size: 13px;&quot; color=&quot;#0000ff&quot;&gt;@&lt;/font&gt;&lt;font style=&quot;border-color: var(--border-color); text-align: left; font-size: 13px;&quot; color=&quot;#ff0000&quot;&gt;@&lt;/font&gt;" style="text;html=1;strokeColor=none;fillColor=none;align=center;verticalAlign=middle;whiteSpace=wrap;rounded=0;fontSize=13;fontFamily=Helvetica;" vertex="1" parent="1">
          <mxGeometry x="881.5" y="1080" width="60" height="20" as="geometry" />
        </mxCell>
        <mxCell id="Xy0spjIBbxIXqmK404P5-212" value="F486S&lt;span style=&quot;border-color: var(--border-color); text-align: left; font-size: 13px;&quot;&gt;&lt;font style=&quot;border-color: var(--border-color); font-size: 13px;&quot; color=&quot;#ff00ff&quot;&gt;@&lt;/font&gt;&lt;/span&gt;&lt;span style=&quot;border-color: var(--border-color); text-align: left; font-size: 13px;&quot;&gt;&lt;font style=&quot;border-color: var(--border-color); font-size: 13px;&quot; color=&quot;#0000ff&quot;&gt;@&lt;/font&gt;&lt;/span&gt;" style="text;html=1;strokeColor=none;fillColor=none;align=center;verticalAlign=middle;whiteSpace=wrap;rounded=0;fontSize=13;fontFamily=Helvetica;" vertex="1" parent="1">
          <mxGeometry x="1081.5" y="1080" width="60" height="20" as="geometry" />
        </mxCell>
        <mxCell id="Xy0spjIBbxIXqmK404P5-213" value="S256L" style="text;html=1;strokeColor=none;fillColor=none;align=center;verticalAlign=middle;whiteSpace=wrap;rounded=0;fontSize=13;fontFamily=Helvetica;" vertex="1" parent="1">
          <mxGeometry x="879.5" y="1130" width="60" height="20" as="geometry" />
        </mxCell>
        <mxCell id="Xy0spjIBbxIXqmK404P5-214" value="CM.10" style="rounded=0;whiteSpace=wrap;html=1;fillColor=#ffff88;strokeColor=#36393d;fontSize=14;fontFamily=Helvetica;" vertex="1" parent="1">
          <mxGeometry x="956.5" y="1181" width="120" height="30" as="geometry" />
        </mxCell>
        <mxCell id="Xy0spjIBbxIXqmK404P5-215" value="CM.11" style="rounded=0;whiteSpace=wrap;html=1;fillColor=#ffff88;strokeColor=#36393d;fontSize=14;fontFamily=Helvetica;" vertex="1" parent="1">
          <mxGeometry x="956.5" y="1231" width="120" height="30" as="geometry" />
        </mxCell>
        <mxCell id="Xy0spjIBbxIXqmK404P5-216" value="CM.12" style="rounded=0;whiteSpace=wrap;html=1;fillColor=#ffff88;strokeColor=#36393d;fontSize=14;fontFamily=Helvetica;" vertex="1" parent="1">
          <mxGeometry x="956.5" y="1280" width="120" height="30" as="geometry" />
        </mxCell>
        <mxCell id="Xy0spjIBbxIXqmK404P5-217" value="" style="edgeStyle=orthogonalEdgeStyle;rounded=0;orthogonalLoop=1;jettySize=auto;html=1;exitX=0.5;exitY=1;exitDx=0;exitDy=0;entryX=0;entryY=0.5;entryDx=0;entryDy=0;" edge="1" parent="1" source="Xy0spjIBbxIXqmK404P5-174" target="Xy0spjIBbxIXqmK404P5-214">
          <mxGeometry relative="1" as="geometry">
            <mxPoint x="881.5" y="714" as="sourcePoint" />
            <mxPoint x="968.5" y="1161" as="targetPoint" />
            <Array as="points">
              <mxPoint x="871.5" y="1196" />
            </Array>
          </mxGeometry>
        </mxCell>
        <mxCell id="Xy0spjIBbxIXqmK404P5-218" value="" style="edgeStyle=orthogonalEdgeStyle;rounded=0;orthogonalLoop=1;jettySize=auto;html=1;exitX=0.5;exitY=1;exitDx=0;exitDy=0;entryX=0;entryY=0.5;entryDx=0;entryDy=0;" edge="1" parent="1" source="Xy0spjIBbxIXqmK404P5-174" target="Xy0spjIBbxIXqmK404P5-216">
          <mxGeometry relative="1" as="geometry">
            <mxPoint x="887.5" y="713.01" as="sourcePoint" />
            <mxPoint x="968.5" y="1258" as="targetPoint" />
            <Array as="points">
              <mxPoint x="871.5" y="1295" />
            </Array>
          </mxGeometry>
        </mxCell>
        <mxCell id="Xy0spjIBbxIXqmK404P5-219" value="" style="edgeStyle=orthogonalEdgeStyle;rounded=0;orthogonalLoop=1;jettySize=auto;html=1;exitX=0.5;exitY=1;exitDx=0;exitDy=0;entryX=0;entryY=0.5;entryDx=0;entryDy=0;" edge="1" parent="1" source="Xy0spjIBbxIXqmK404P5-174" target="Xy0spjIBbxIXqmK404P5-215">
          <mxGeometry relative="1" as="geometry">
            <mxPoint x="881.5" y="714" as="sourcePoint" />
            <mxPoint x="968.5" y="1208" as="targetPoint" />
            <Array as="points">
              <mxPoint x="871.5" y="1246" />
            </Array>
          </mxGeometry>
        </mxCell>
        <mxCell id="Xy0spjIBbxIXqmK404P5-220" value="K478T(R)&lt;span style=&quot;color: rgb(0, 0, 255); font-size: 13px;&quot;&gt;@&lt;/span&gt;,&lt;br style=&quot;font-size: 13px;&quot;&gt;V445A&lt;span style=&quot;color: rgb(0, 0, 255); font-size: 13px;&quot;&gt;@&lt;/span&gt;" style="text;html=1;strokeColor=none;fillColor=none;align=left;verticalAlign=middle;whiteSpace=wrap;rounded=0;fontSize=13;fontFamily=Helvetica;" vertex="1" parent="1">
          <mxGeometry x="875.5" y="1165" width="60" height="28" as="geometry" />
        </mxCell>
        <mxCell id="Xy0spjIBbxIXqmK404P5-221" value="R346T&lt;font color=&quot;#0000ff&quot; style=&quot;font-size: 13px;&quot;&gt;@&lt;/font&gt;&lt;font color=&quot;#ff0000&quot; style=&quot;font-size: 13px;&quot;&gt;@&lt;/font&gt;,&lt;br style=&quot;font-size: 13px;&quot;&gt;&lt;span style=&quot;border-color: var(--border-color); background-color: rgb(248, 249, 250); font-size: 13px;&quot;&gt;F486S&lt;/span&gt;&lt;span style=&quot;border-color: var(--border-color); font-size: 13px;&quot;&gt;&lt;font style=&quot;border-color: var(--border-color); font-size: 13px;&quot; color=&quot;#ff00ff&quot;&gt;@&lt;/font&gt;&lt;/span&gt;&lt;span style=&quot;border-color: var(--border-color); font-size: 13px;&quot;&gt;&lt;font style=&quot;border-color: var(--border-color); font-size: 13px;&quot; color=&quot;#0000ff&quot;&gt;@&lt;/font&gt;&lt;/span&gt;&lt;font color=&quot;#ff0000&quot; style=&quot;font-size: 13px;&quot;&gt;&lt;br style=&quot;font-size: 13px;&quot;&gt;&lt;/font&gt;" style="text;html=1;strokeColor=none;fillColor=none;align=left;verticalAlign=middle;whiteSpace=wrap;rounded=0;fontSize=13;fontFamily=Helvetica;" vertex="1" parent="1">
          <mxGeometry x="875.5" y="1218" width="60" height="20" as="geometry" />
        </mxCell>
        <mxCell id="Xy0spjIBbxIXqmK404P5-222" value="" style="endArrow=classic;html=1;rounded=0;entryX=0.5;entryY=0;entryDx=0;entryDy=0;fontFamily=Helvetica;exitX=0.5;exitY=1;exitDx=0;exitDy=0;" edge="1" parent="1" source="Xy0spjIBbxIXqmK404P5-11" target="Xy0spjIBbxIXqmK404P5-23">
          <mxGeometry width="50" height="50" relative="1" as="geometry">
            <mxPoint x="1557.5" y="560" as="sourcePoint" />
            <mxPoint x="1656.5" y="613" as="targetPoint" />
          </mxGeometry>
        </mxCell>
        <mxCell id="Xy0spjIBbxIXqmK404P5-223" value="G485D&lt;span style=&quot;color: rgb(0, 0, 255); text-align: left; font-size: 13px;&quot;&gt;@&lt;/span&gt;" style="text;html=1;strokeColor=none;fillColor=none;align=center;verticalAlign=middle;whiteSpace=wrap;rounded=0;fontSize=13;fontFamily=Helvetica;" vertex="1" parent="1">
          <mxGeometry x="1088.5" y="977" width="60" height="20" as="geometry" />
        </mxCell>
        <mxCell id="Xy0spjIBbxIXqmK404P5-224" value="&lt;span style=&quot;font-size: 13px; font-style: normal; font-variant-ligatures: normal; font-variant-caps: normal; font-weight: 400; letter-spacing: normal; orphans: 2; text-align: left; text-indent: 0px; text-transform: none; widows: 2; word-spacing: 0px; -webkit-text-stroke-width: 0px; background-color: rgb(248, 249, 250); text-decoration-thickness: initial; text-decoration-style: initial; text-decoration-color: initial; float: none; display: inline !important;&quot;&gt;F486S&lt;/span&gt;&lt;span style=&quot;border-color: var(--border-color); font-size: 13px;&quot;&gt;&lt;font style=&quot;border-color: var(--border-color); font-size: 13px;&quot; color=&quot;#ff00ff&quot;&gt;@&lt;/font&gt;&lt;/span&gt;&lt;span style=&quot;border-color: var(--border-color); font-size: 13px;&quot;&gt;&lt;font style=&quot;border-color: var(--border-color); font-size: 13px;&quot; color=&quot;#0000ff&quot;&gt;@&lt;/font&gt;&lt;/span&gt;" style="text;whiteSpace=wrap;html=1;fontSize=13;fontFamily=Helvetica;fontColor=#000000;" vertex="1" parent="1">
          <mxGeometry x="379.5" y="819" width="40" height="30" as="geometry" />
        </mxCell>
        <mxCell id="Xy0spjIBbxIXqmK404P5-225" value="&amp;nbsp;XBB Spike mutations: (BJ.1 + Breakpoint + BM.1.1.1)&lt;br style=&quot;font-size: 20px;&quot;&gt;&lt;br style=&quot;font-size: 20px;&quot;&gt;&amp;nbsp;T19I,L24S,DEL25/27,V83A,G142D,DEL144/144,H146Q,Q183E,V213E,&lt;br style=&quot;font-size: 20px;&quot;&gt;&amp;nbsp;G339H,R346T,L368I,S371F,S373P,S375F,T376A,D405N,R408S,K417N,&lt;br style=&quot;font-size: 20px;&quot;&gt;&amp;nbsp;N440K,V445P,G446S&lt;b style=&quot;font-size: 20px;&quot;&gt;&lt;span style=&quot;font-size: 20px;&quot;&gt;&amp;nbsp;&lt;/span&gt;&lt;u style=&quot;font-size: 20px;&quot;&gt;[Breakpoint]&lt;/u&gt;&lt;/b&gt;&amp;nbsp;N460K,S477N,T478K,E484A,F486S,&lt;br style=&quot;font-size: 20px;&quot;&gt;&amp;nbsp;F490S,Q498R,N501Y,Y505H,D614G,H655Y,N679K,P681H,N764K,D796Y,&lt;br style=&quot;font-size: 20px;&quot;&gt;&amp;nbsp;Q954H,N969K" style="text;whiteSpace=wrap;html=1;fontColor=#000000;fontSize=20;strokeColor=default;perimeterSpacing=1;" vertex="1" parent="1">
          <mxGeometry x="1150.5" y="1135" width="687" height="192" as="geometry" />
        </mxCell>
        <mxCell id="Xy0spjIBbxIXqmK404P5-226" value="&lt;font style=&quot;font-size: 13px;&quot;&gt;R346T&lt;/font&gt;&lt;font style=&quot;border-color: var(--border-color); font-size: 13px;&quot; color=&quot;#0000ff&quot;&gt;@&lt;/font&gt;&lt;font style=&quot;border-color: var(--border-color); font-size: 13px;&quot; color=&quot;#ff0000&quot;&gt;@&lt;/font&gt;" style="text;whiteSpace=wrap;html=1;fontSize=19;fontColor=#000000;" vertex="1" parent="1">
          <mxGeometry x="657.5" y="700" width="60" height="38" as="geometry" />
        </mxCell>
        <mxCell id="Xy0spjIBbxIXqmK404P5-227" value="BA.2.75.2" style="rounded=0;whiteSpace=wrap;html=1;fillColor=#e1d5e7;strokeColor=#9673a6;fontFamily=Helvetica;fontSize=14;" vertex="1" parent="1">
          <mxGeometry x="69.5" y="735" width="120" height="30" as="geometry" />
        </mxCell>
        <mxCell id="Xy0spjIBbxIXqmK404P5-228" value="" style="endArrow=classic;html=1;rounded=0;entryX=1;entryY=0.5;entryDx=0;entryDy=0;fontFamily=Helvetica;" edge="1" parent="1" target="Xy0spjIBbxIXqmK404P5-227">
          <mxGeometry width="50" height="50" relative="1" as="geometry">
            <mxPoint x="337.5" y="750" as="sourcePoint" />
            <mxPoint x="132.53999999999996" y="806.9999999999998" as="targetPoint" />
          </mxGeometry>
        </mxCell>
        <mxCell id="Xy0spjIBbxIXqmK404P5-229" value="BA.2.75.6" style="rounded=0;whiteSpace=wrap;html=1;fillColor=#e1d5e7;strokeColor=#9673a6;fontFamily=Helvetica;fontSize=14;" vertex="1" parent="1">
          <mxGeometry x="527.5" y="735" width="120" height="30" as="geometry" />
        </mxCell>
        <mxCell id="Xy0spjIBbxIXqmK404P5-230" value="&lt;font style=&quot;font-size: 13px;&quot;&gt;R346T&lt;font style=&quot;border-color: var(--border-color); font-size: 13px;&quot; color=&quot;#0000ff&quot;&gt;@&lt;/font&gt;&lt;font style=&quot;border-color: var(--border-color); font-size: 13px;&quot; color=&quot;#ff0000&quot;&gt;@&lt;/font&gt;&lt;br style=&quot;border-color: var(--border-color);&quot;&gt;F486S&lt;span style=&quot;border-color: var(--border-color);&quot;&gt;&lt;font style=&quot;border-color: var(--border-color); font-size: 13px;&quot; color=&quot;#ff00ff&quot;&gt;@&lt;/font&gt;&lt;/span&gt;&lt;span style=&quot;border-color: var(--border-color);&quot;&gt;&lt;font style=&quot;border-color: var(--border-color); font-size: 13px;&quot; color=&quot;#0000ff&quot;&gt;@&lt;/font&gt;&lt;/span&gt;&lt;br style=&quot;border-color: var(--border-color);&quot;&gt;D1199N&lt;/font&gt;" style="text;html=1;strokeColor=none;fillColor=none;align=left;verticalAlign=middle;whiteSpace=wrap;rounded=0;fontSize=13;fontFamily=Helvetica;" vertex="1" parent="1">
          <mxGeometry x="239" y="700" width="81" height="50" as="geometry" />
        </mxCell>
        <mxCell id="Xy0spjIBbxIXqmK404P5-231" value="BF.11" style="rounded=0;whiteSpace=wrap;html=1;fillColor=#dae8fc;strokeColor=#6c8ebf;fontFamily=Helvetica;fontSize=14;" vertex="1" parent="1">
          <mxGeometry x="1616.5" y="885" width="120" height="30" as="geometry" />
        </mxCell>
        <mxCell id="Xy0spjIBbxIXqmK404P5-232" value="R346T&lt;font color=&quot;#0000ff&quot; style=&quot;font-size: 14px;&quot;&gt;@&lt;/font&gt;&lt;font color=&quot;#ff0000&quot; style=&quot;font-size: 14px;&quot;&gt;@&lt;/font&gt;" style="text;html=1;strokeColor=none;fillColor=none;align=left;verticalAlign=middle;whiteSpace=wrap;rounded=0;fontSize=14;fontFamily=Helvetica;" vertex="1" parent="1">
          <mxGeometry x="1517.5" y="879" width="60" height="20" as="geometry" />
        </mxCell>
        <mxCell id="Xy0spjIBbxIXqmK404P5-233" value="" style="edgeStyle=orthogonalEdgeStyle;rounded=0;orthogonalLoop=1;jettySize=auto;html=1;fontFamily=Helvetica;fontSize=18;fontColor=#000000;exitX=0.5;exitY=1;exitDx=0;exitDy=0;entryX=0;entryY=0.5;entryDx=0;entryDy=0;" edge="1" parent="1" source="Xy0spjIBbxIXqmK404P5-69" target="Xy0spjIBbxIXqmK404P5-231">
          <mxGeometry relative="1" as="geometry">
            <mxPoint x="1498.5" y="707" as="sourcePoint" />
            <mxPoint x="1593.5" y="855" as="targetPoint" />
          </mxGeometry>
        </mxCell>
        <mxCell id="Xy0spjIBbxIXqmK404P5-234" value="" style="edgeStyle=orthogonalEdgeStyle;rounded=0;orthogonalLoop=1;jettySize=auto;html=1;fontFamily=Helvetica;fontSize=14;fontColor=#000000;exitX=0.5;exitY=1;exitDx=0;exitDy=0;entryX=1;entryY=0.5;entryDx=0;entryDy=0;" edge="1" parent="1" source="Xy0spjIBbxIXqmK404P5-53" target="Xy0spjIBbxIXqmK404P5-109">
          <mxGeometry relative="1" as="geometry">
            <mxPoint x="289.5" y="893" as="sourcePoint" />
            <mxPoint x="199.5" y="943" as="targetPoint" />
          </mxGeometry>
        </mxCell>
        <mxCell id="Xy0spjIBbxIXqmK404P5-235" value="" style="edgeStyle=orthogonalEdgeStyle;rounded=0;orthogonalLoop=1;jettySize=auto;html=1;fontFamily=Helvetica;fontSize=14;fontColor=#000000;exitX=0.5;exitY=1;exitDx=0;exitDy=0;entryX=1;entryY=0.5;entryDx=0;entryDy=0;" edge="1" parent="1" source="Xy0spjIBbxIXqmK404P5-53" target="Xy0spjIBbxIXqmK404P5-155">
          <mxGeometry relative="1" as="geometry">
            <mxPoint x="289.5" y="893" as="sourcePoint" />
            <mxPoint x="197.5" y="998" as="targetPoint" />
          </mxGeometry>
        </mxCell>
        <mxCell id="Xy0spjIBbxIXqmK404P5-236" value="" style="edgeStyle=orthogonalEdgeStyle;rounded=0;orthogonalLoop=1;jettySize=auto;html=1;fontFamily=Helvetica;fontSize=14;fontColor=#000000;exitX=0.5;exitY=1;exitDx=0;exitDy=0;entryX=1;entryY=0.5;entryDx=0;entryDy=0;" edge="1" parent="1" source="Xy0spjIBbxIXqmK404P5-53" target="Xy0spjIBbxIXqmK404P5-238">
          <mxGeometry relative="1" as="geometry">
            <mxPoint x="289.5" y="893" as="sourcePoint" />
            <mxPoint x="187.5" y="1091" as="targetPoint" />
            <Array as="points">
              <mxPoint x="279.5" y="1093" />
            </Array>
          </mxGeometry>
        </mxCell>
        <mxCell id="Xy0spjIBbxIXqmK404P5-237" value="" style="edgeStyle=orthogonalEdgeStyle;rounded=0;orthogonalLoop=1;jettySize=auto;html=1;" edge="1" parent="1" source="Xy0spjIBbxIXqmK404P5-238" target="Xy0spjIBbxIXqmK404P5-239">
          <mxGeometry relative="1" as="geometry" />
        </mxCell>
        <mxCell id="Xy0spjIBbxIXqmK404P5-238" value="BN.1.3" style="rounded=0;whiteSpace=wrap;html=1;fillColor=#e1d5e7;strokeColor=#9673a6;fontFamily=Helvetica;fontSize=14;" vertex="1" parent="1">
          <mxGeometry x="69.5" y="1078" width="120" height="30" as="geometry" />
        </mxCell>
        <mxCell id="Xy0spjIBbxIXqmK404P5-239" value="BN.1.3.1" style="rounded=0;whiteSpace=wrap;html=1;fillColor=#e1d5e7;strokeColor=#9673a6;fontFamily=Helvetica;fontSize=14;" vertex="1" parent="1">
          <mxGeometry x="69.5" y="1135" width="120" height="30" as="geometry" />
        </mxCell>
        <mxCell id="Xy0spjIBbxIXqmK404P5-240" value="BQ.1.3" style="rounded=0;whiteSpace=wrap;html=1;fillColor=#d5e8d4;strokeColor=#82b366;fontFamily=Helvetica;fontSize=14;" vertex="1" parent="1">
          <mxGeometry x="1427.5" y="1035" width="120" height="30" as="geometry" />
        </mxCell>
        <mxCell id="Xy0spjIBbxIXqmK404P5-241" value="" style="edgeStyle=orthogonalEdgeStyle;rounded=0;orthogonalLoop=1;jettySize=auto;html=1;fontSize=13;entryX=0;entryY=0.5;entryDx=0;entryDy=0;exitX=0.5;exitY=1;exitDx=0;exitDy=0;" edge="1" parent="1" source="Xy0spjIBbxIXqmK404P5-36" target="Xy0spjIBbxIXqmK404P5-40">
          <mxGeometry relative="1" as="geometry">
            <mxPoint x="1427.5" y="965" as="targetPoint" />
            <mxPoint x="1347.5" y="915" as="sourcePoint" />
            <Array as="points">
              <mxPoint x="1348.5" y="950" />
            </Array>
          </mxGeometry>
        </mxCell>
        <mxCell id="Xy0spjIBbxIXqmK404P5-242" value="" style="edgeStyle=orthogonalEdgeStyle;rounded=0;orthogonalLoop=1;jettySize=auto;html=1;fontSize=13;entryX=0;entryY=0.5;entryDx=0;entryDy=0;exitX=0.5;exitY=1;exitDx=0;exitDy=0;" edge="1" parent="1" source="Xy0spjIBbxIXqmK404P5-36" target="Xy0spjIBbxIXqmK404P5-240">
          <mxGeometry relative="1" as="geometry">
            <mxPoint x="1438.5" y="979" as="targetPoint" />
            <mxPoint x="1358.5" y="924.0000000000001" as="sourcePoint" />
            <Array as="points">
              <mxPoint x="1348.5" y="1050" />
            </Array>
          </mxGeometry>
        </mxCell>
        <mxCell id="Xy0spjIBbxIXqmK404P5-243" value="E619Q" style="text;html=1;strokeColor=none;fillColor=none;align=center;verticalAlign=middle;whiteSpace=wrap;rounded=0;fontSize=13;fontFamily=Helvetica;" vertex="1" parent="1">
          <mxGeometry x="1353.5" y="1031" width="60" height="20" as="geometry" />
        </mxCell>
        <mxCell id="Xy0spjIBbxIXqmK404P5-244" value="BQ.1.2" style="rounded=0;whiteSpace=wrap;html=1;fillColor=#d5e8d4;strokeColor=#82b366;fontFamily=Helvetica;fontSize=14;" vertex="1" parent="1">
          <mxGeometry x="1428.5" y="985" width="120" height="30" as="geometry" />
        </mxCell>
        <mxCell id="Xy0spjIBbxIXqmK404P5-245" value="I666V" style="text;html=1;strokeColor=none;fillColor=none;align=center;verticalAlign=middle;whiteSpace=wrap;rounded=0;fontSize=13;fontFamily=Helvetica;" vertex="1" parent="1">
          <mxGeometry x="1354.5" y="981" width="60" height="20" as="geometry" />
        </mxCell>
        <mxCell id="Xy0spjIBbxIXqmK404P5-246" value="" style="edgeStyle=orthogonalEdgeStyle;rounded=0;orthogonalLoop=1;jettySize=auto;html=1;fontSize=13;entryX=0;entryY=0.5;entryDx=0;entryDy=0;exitX=0.5;exitY=1;exitDx=0;exitDy=0;" edge="1" parent="1" source="Xy0spjIBbxIXqmK404P5-36" target="Xy0spjIBbxIXqmK404P5-244">
          <mxGeometry relative="1" as="geometry">
            <mxPoint x="1428.5" y="999" as="targetPoint" />
            <mxPoint x="1348.5" y="965" as="sourcePoint" />
            <Array as="points">
              <mxPoint x="1348.5" y="1000" />
            </Array>
          </mxGeometry>
        </mxCell>
        <mxCell id="Xy0spjIBbxIXqmK404P5-247" value="BM.1.1.3" style="rounded=0;whiteSpace=wrap;html=1;fillColor=#e1d5e7;strokeColor=#9673a6;fontFamily=Helvetica;fontSize=14;" vertex="1" parent="1">
          <mxGeometry x="527.5" y="1095" width="120" height="30" as="geometry" />
        </mxCell>
        <mxCell id="Xy0spjIBbxIXqmK404P5-248" value="" style="edgeStyle=orthogonalEdgeStyle;rounded=0;orthogonalLoop=1;jettySize=auto;html=1;exitX=0;exitY=0.5;exitDx=0;exitDy=0;entryX=0;entryY=0.5;entryDx=0;entryDy=0;fontFamily=Helvetica;" edge="1" parent="1" source="Xy0spjIBbxIXqmK404P5-118" target="Xy0spjIBbxIXqmK404P5-247">
          <mxGeometry relative="1" as="geometry">
            <mxPoint x="523.5" y="920.0000000000001" as="sourcePoint" />
            <mxPoint x="523.5" y="1110" as="targetPoint" />
            <Array as="points">
              <mxPoint x="513.5" y="920" />
              <mxPoint x="513.5" y="1110" />
            </Array>
          </mxGeometry>
        </mxCell>
        <mxCell id="Xy0spjIBbxIXqmK404P5-249" value="BF.7.14" style="rounded=0;whiteSpace=wrap;html=1;fillColor=#dae8fc;strokeColor=#6c8ebf;fontFamily=Helvetica;fontSize=14;" vertex="1" parent="1">
          <mxGeometry x="1837.5" y="831" width="120" height="30" as="geometry" />
        </mxCell>
        <mxCell id="Xy0spjIBbxIXqmK404P5-250" value="C1243F" style="text;html=1;strokeColor=none;fillColor=none;align=center;verticalAlign=middle;whiteSpace=wrap;rounded=0;fontSize=14;fontFamily=Helvetica;" vertex="1" parent="1">
          <mxGeometry x="1759.5" y="826" width="60" height="20" as="geometry" />
        </mxCell>
        <mxCell id="Xy0spjIBbxIXqmK404P5-251" value="BA.5.2.48" style="rounded=0;whiteSpace=wrap;html=1;fillColor=#dae8fc;strokeColor=#6c8ebf;fontFamily=Helvetica;fontSize=14;" vertex="1" parent="1">
          <mxGeometry x="1616.5" y="602" width="120" height="30" as="geometry" />
        </mxCell>
        <mxCell id="Xy0spjIBbxIXqmK404P5-252" value="" style="edgeStyle=orthogonalEdgeStyle;rounded=0;orthogonalLoop=1;jettySize=auto;html=1;entryX=0.5;entryY=0;entryDx=0;entryDy=0;fontFamily=Helvetica;" edge="1" parent="1" target="Xy0spjIBbxIXqmK404P5-50">
          <mxGeometry relative="1" as="geometry">
            <mxPoint x="457.5" y="580" as="sourcePoint" />
            <mxPoint x="741.5" y="928" as="targetPoint" />
            <Array as="points">
              <mxPoint x="457.5" y="706" />
              <mxPoint x="731.5" y="706" />
            </Array>
          </mxGeometry>
        </mxCell>
        <mxCell id="Xy0spjIBbxIXqmK404P5-253" value="BA.2.75.4" style="rounded=0;whiteSpace=wrap;html=1;fillColor=#e1d5e7;strokeColor=#9673a6;fontFamily=Helvetica;fontSize=14;" vertex="1" parent="1">
          <mxGeometry x="67.5" y="660" width="120" height="30" as="geometry" />
        </mxCell>
        <mxCell id="Xy0spjIBbxIXqmK404P5-254" value="" style="edgeStyle=orthogonalEdgeStyle;rounded=0;orthogonalLoop=1;jettySize=auto;html=1;entryX=1;entryY=0.5;entryDx=0;entryDy=0;fontFamily=Helvetica;exitX=0.25;exitY=0;exitDx=0;exitDy=0;" edge="1" parent="1" source="Xy0spjIBbxIXqmK404P5-14" target="Xy0spjIBbxIXqmK404P5-253">
          <mxGeometry relative="1" as="geometry">
            <mxPoint x="277.5" y="650" as="sourcePoint" />
            <mxPoint x="741.4999999999998" y="745" as="targetPoint" />
            <Array as="points">
              <mxPoint x="367.5" y="675" />
            </Array>
          </mxGeometry>
        </mxCell>
        <mxCell id="Xy0spjIBbxIXqmK404P5-255" value="L452R" style="text;html=1;strokeColor=none;fillColor=none;align=center;verticalAlign=middle;whiteSpace=wrap;rounded=0;fontSize=13;fontFamily=Helvetica;" vertex="1" parent="1">
          <mxGeometry x="311.5" y="677" width="60" height="20" as="geometry" />
        </mxCell>
        <mxCell id="Xy0spjIBbxIXqmK404P5-256" value="" style="edgeStyle=orthogonalEdgeStyle;rounded=0;orthogonalLoop=1;jettySize=auto;html=1;fontSize=16;fontFamily=Helvetica;exitX=0.5;exitY=0;exitDx=0;exitDy=0;entryX=0.5;entryY=1;entryDx=0;entryDy=0;" edge="1" parent="1" source="Xy0spjIBbxIXqmK404P5-253" target="Xy0spjIBbxIXqmK404P5-258">
          <mxGeometry relative="1" as="geometry">
            <mxPoint x="139.5344827586207" y="626" as="sourcePoint" />
            <mxPoint x="127.5" y="630" as="targetPoint" />
            <Array as="points" />
          </mxGeometry>
        </mxCell>
        <mxCell id="Xy0spjIBbxIXqmK404P5-257" value="" style="edgeStyle=orthogonalEdgeStyle;rounded=0;orthogonalLoop=1;jettySize=auto;html=1;" edge="1" parent="1" source="Xy0spjIBbxIXqmK404P5-258" target="Xy0spjIBbxIXqmK404P5-260">
          <mxGeometry relative="1" as="geometry" />
        </mxCell>
        <mxCell id="Xy0spjIBbxIXqmK404P5-258" value="BR.2" style="rounded=0;whiteSpace=wrap;html=1;fillColor=#e1d5e7;strokeColor=#9673a6;fontFamily=Helvetica;fontSize=14;" vertex="1" parent="1">
          <mxGeometry x="67.5" y="605" width="120" height="30" as="geometry" />
        </mxCell>
        <mxCell id="Xy0spjIBbxIXqmK404P5-259" value="R346T&lt;font style=&quot;border-color: var(--border-color); text-align: left;&quot; color=&quot;#0000ff&quot;&gt;@&lt;/font&gt;&lt;font style=&quot;border-color: var(--border-color); text-align: left;&quot; color=&quot;#ff0000&quot;&gt;@&lt;/font&gt;, F486I&lt;span style=&quot;border-color: var(--border-color); text-align: left;&quot;&gt;&lt;font style=&quot;border-color: var(--border-color);&quot; color=&quot;#ff00ff&quot;&gt;@&lt;/font&gt;&lt;/span&gt;&lt;span style=&quot;border-color: var(--border-color); text-align: left;&quot;&gt;&lt;font style=&quot;border-color: var(--border-color);&quot; color=&quot;#0000ff&quot;&gt;@&lt;/font&gt;&lt;/span&gt;" style="text;html=1;strokeColor=none;fillColor=none;align=center;verticalAlign=middle;whiteSpace=wrap;rounded=0;fontSize=13;fontFamily=Helvetica;" vertex="1" parent="1">
          <mxGeometry x="126.5" y="640" width="150" height="20" as="geometry" />
        </mxCell>
        <mxCell id="Xy0spjIBbxIXqmK404P5-260" value="BR.2.1" style="rounded=0;whiteSpace=wrap;html=1;fillColor=#e1d5e7;strokeColor=#9673a6;fontFamily=Helvetica;fontSize=14;" vertex="1" parent="1">
          <mxGeometry x="215.5" y="605" width="120" height="30" as="geometry" />
        </mxCell>
        <mxCell id="Xy0spjIBbxIXqmK404P5-261" value="" style="edgeStyle=orthogonalEdgeStyle;rounded=0;orthogonalLoop=1;jettySize=auto;html=1;fontFamily=Helvetica;exitX=0.75;exitY=1;exitDx=0;exitDy=0;entryX=0;entryY=0.5;entryDx=0;entryDy=0;" edge="1" parent="1" source="Xy0spjIBbxIXqmK404P5-22" target="Xy0spjIBbxIXqmK404P5-262">
          <mxGeometry x="0.8648" y="896" relative="1" as="geometry">
            <mxPoint x="1523.5" y="652" as="sourcePoint" />
            <mxPoint x="1607.5" y="690" as="targetPoint" />
            <Array as="points">
              <mxPoint x="1518.5" y="660" />
              <mxPoint x="1557.5" y="660" />
              <mxPoint x="1557.5" y="682" />
            </Array>
            <mxPoint y="-26" as="offset" />
          </mxGeometry>
        </mxCell>
        <mxCell id="Xy0spjIBbxIXqmK404P5-262" value="BA.5.2.49" style="rounded=0;whiteSpace=wrap;html=1;fillColor=#dae8fc;strokeColor=#6c8ebf;fontFamily=Helvetica;fontSize=14;" vertex="1" parent="1">
          <mxGeometry x="1615.5" y="667" width="120" height="30" as="geometry" />
        </mxCell>
        <mxCell id="Xy0spjIBbxIXqmK404P5-263" value="&lt;span style=&quot;color: rgb(44, 62, 80); font-family: &amp;quot;DM Sans&amp;quot;, Avenir, Helvetica, Arial, sans-serif; font-size: 12px; font-style: normal; font-variant-ligatures: normal; font-variant-caps: normal; font-weight: 400; letter-spacing: normal; orphans: 2; text-align: left; text-indent: 0px; text-transform: none; widows: 2; word-spacing: 0px; -webkit-text-stroke-width: 0px; background-color: rgb(248, 249, 250); text-decoration-thickness: initial; text-decoration-style: initial; text-decoration-color: initial; float: none; display: inline !important;&quot;&gt;T883I&lt;/span&gt;" style="text;whiteSpace=wrap;html=1;" vertex="1" parent="1">
          <mxGeometry x="1562.5" y="658" width="35" height="26" as="geometry" />
        </mxCell>
        <mxCell id="Xy0spjIBbxIXqmK404P5-264" value="" style="edgeStyle=orthogonalEdgeStyle;rounded=0;orthogonalLoop=1;jettySize=auto;html=1;entryX=0;entryY=0.5;entryDx=0;entryDy=0;exitX=1;exitY=0.5;exitDx=0;exitDy=0;" edge="1" parent="1" source="Xy0spjIBbxIXqmK404P5-251" target="Xy0spjIBbxIXqmK404P5-266">
          <mxGeometry relative="1" as="geometry">
            <mxPoint x="1740" y="617" as="sourcePoint" />
            <mxPoint x="1800" y="540" as="targetPoint" />
            <Array as="points">
              <mxPoint x="1750" y="617" />
              <mxPoint x="1750" y="545" />
            </Array>
          </mxGeometry>
        </mxCell>
        <mxCell id="Xy0spjIBbxIXqmK404P5-265" value="" style="edgeStyle=orthogonalEdgeStyle;rounded=0;orthogonalLoop=1;jettySize=auto;html=1;entryX=1;entryY=0.5;entryDx=0;entryDy=0;" edge="1" parent="1" source="Xy0spjIBbxIXqmK404P5-266" target="Xy0spjIBbxIXqmK404P5-271">
          <mxGeometry relative="1" as="geometry">
            <Array as="points">
              <mxPoint x="1975" y="545" />
              <mxPoint x="1975" y="741" />
            </Array>
          </mxGeometry>
        </mxCell>
        <mxCell id="Xy0spjIBbxIXqmK404P5-266" value="DY.1" style="rounded=0;whiteSpace=wrap;html=1;fillColor=#dae8fc;strokeColor=#6c8ebf;fontFamily=Helvetica;fontSize=14;" vertex="1" parent="1">
          <mxGeometry x="1834.5" y="530" width="120" height="30" as="geometry" />
        </mxCell>
        <mxCell id="Xy0spjIBbxIXqmK404P5-267" value="&lt;span style=&quot;color: rgb(44, 62, 80); font-family: &amp;quot;DM Sans&amp;quot;, Avenir, Helvetica, Arial, sans-serif; font-style: normal; font-variant-ligatures: normal; font-variant-caps: normal; font-weight: 400; letter-spacing: normal; orphans: 2; text-align: left; text-indent: 0px; text-transform: none; widows: 2; word-spacing: 0px; -webkit-text-stroke-width: 0px; background-color: rgb(248, 249, 250); text-decoration-thickness: initial; text-decoration-style: initial; text-decoration-color: initial; float: none; display: inline !important;&quot;&gt;&lt;font style=&quot;font-size: 14px;&quot;&gt;A570S&lt;/font&gt;&lt;/span&gt;" style="text;whiteSpace=wrap;html=1;" vertex="1" parent="1">
          <mxGeometry x="1772" y="522" width="48" height="26" as="geometry" />
        </mxCell>
        <mxCell id="Xy0spjIBbxIXqmK404P5-268" value="DY.2" style="rounded=0;whiteSpace=wrap;html=1;fillColor=#dae8fc;strokeColor=#6c8ebf;fontFamily=Helvetica;fontSize=14;" vertex="1" parent="1">
          <mxGeometry x="1834.5" y="579" width="120" height="30" as="geometry" />
        </mxCell>
        <mxCell id="Xy0spjIBbxIXqmK404P5-269" value="DY.3" style="rounded=0;whiteSpace=wrap;html=1;fillColor=#dae8fc;strokeColor=#6c8ebf;fontFamily=Helvetica;fontSize=14;" vertex="1" parent="1">
          <mxGeometry x="1834.5" y="628" width="120" height="30" as="geometry" />
        </mxCell>
        <mxCell id="Xy0spjIBbxIXqmK404P5-270" value="DY.4" style="rounded=0;whiteSpace=wrap;html=1;fillColor=#dae8fc;strokeColor=#6c8ebf;fontFamily=Helvetica;fontSize=14;" vertex="1" parent="1">
          <mxGeometry x="1834.5" y="677" width="120" height="30" as="geometry" />
        </mxCell>
        <mxCell id="Xy0spjIBbxIXqmK404P5-271" value="DY.1.1" style="rounded=0;whiteSpace=wrap;html=1;fillColor=#dae8fc;strokeColor=#6c8ebf;fontFamily=Helvetica;fontSize=14;" vertex="1" parent="1">
          <mxGeometry x="1834.5" y="726" width="120" height="30" as="geometry" />
        </mxCell>
        <mxCell id="Xy0spjIBbxIXqmK404P5-272" value="" style="edgeStyle=orthogonalEdgeStyle;rounded=0;orthogonalLoop=1;jettySize=auto;html=1;entryX=0;entryY=0.5;entryDx=0;entryDy=0;exitX=1;exitY=0.5;exitDx=0;exitDy=0;" edge="1" parent="1" target="Xy0spjIBbxIXqmK404P5-268">
          <mxGeometry relative="1" as="geometry">
            <mxPoint x="1736.5" y="616" as="sourcePoint" />
            <mxPoint x="1834.5" y="544" as="targetPoint" />
            <Array as="points">
              <mxPoint x="1750" y="616" />
              <mxPoint x="1750" y="594" />
            </Array>
          </mxGeometry>
        </mxCell>
        <mxCell id="Xy0spjIBbxIXqmK404P5-273" value="" style="edgeStyle=orthogonalEdgeStyle;rounded=0;orthogonalLoop=1;jettySize=auto;html=1;exitX=1;exitY=0.5;exitDx=0;exitDy=0;entryX=0;entryY=0.5;entryDx=0;entryDy=0;" edge="1" parent="1" source="Xy0spjIBbxIXqmK404P5-251" target="Xy0spjIBbxIXqmK404P5-269">
          <mxGeometry relative="1" as="geometry">
            <mxPoint x="1735.5" y="663" as="sourcePoint" />
            <mxPoint x="1800" y="670" as="targetPoint" />
            <Array as="points">
              <mxPoint x="1750" y="617" />
              <mxPoint x="1750" y="643" />
            </Array>
          </mxGeometry>
        </mxCell>
        <mxCell id="Xy0spjIBbxIXqmK404P5-274" value="" style="edgeStyle=orthogonalEdgeStyle;rounded=0;orthogonalLoop=1;jettySize=auto;html=1;exitX=1;exitY=0.5;exitDx=0;exitDy=0;entryX=0.002;entryY=0.552;entryDx=0;entryDy=0;entryPerimeter=0;" edge="1" parent="1" source="Xy0spjIBbxIXqmK404P5-251" target="Xy0spjIBbxIXqmK404P5-270">
          <mxGeometry relative="1" as="geometry">
            <mxPoint x="1730" y="658" as="sourcePoint" />
            <mxPoint x="1820" y="690" as="targetPoint" />
            <Array as="points">
              <mxPoint x="1750" y="617" />
              <mxPoint x="1750" y="694" />
              <mxPoint x="1835" y="694" />
            </Array>
          </mxGeometry>
        </mxCell>
        <mxCell id="Xy0spjIBbxIXqmK404P5-275" value="&lt;span style=&quot;color: rgba(0, 0, 0, 0); font-family: monospace; font-size: 0px;&quot;&gt;%3CmxGraphModel%3E%3Croot%3E%3CmxCell%20id%3D%220%22%2F%3E%3CmxCell%20id%3D%221%22%20parent%3D%220%22%2F%3E%3CmxCell%20id%3D%222%22%20value%3D%22%26lt%3Bspan%20style%3D%26quot%3Bcolor%3A%20rgb(44%2C%2062%2C%2080)%3B%20font-family%3A%20%26amp%3Bquot%3BDM%20Sans%26amp%3Bquot%3B%2C%20Avenir%2C%20Helvetica%2C%20Arial%2C%20sans-serif%3B%20font-size%3A%2012px%3B%20font-style%3A%20normal%3B%20font-variant-ligatures%3A%20normal%3B%20font-variant-caps%3A%20normal%3B%20font-weight%3A%20400%3B%20letter-spacing%3A%20normal%3B%20orphans%3A%202%3B%20text-align%3A%20left%3B%20text-indent%3A%200px%3B%20text-transform%3A%20none%3B%20widows%3A%202%3B%20word-spacing%3A%200px%3B%20-webkit-text-stroke-width%3A%200px%3B%20background-color%3A%20rgb(248%2C%20249%2C%20250)%3B%20text-decoration-thickness%3A%20initial%3B%20text-decoration-style%3A%20initial%3B%20text-decoration-color%3A%20initial%3B%20float%3A%20none%3B%20display%3A%20inline%20!important%3B%26quot%3B%26gt%3BA570S%26lt%3B%2Fspan%26gt%3B%22%20style%3D%22text%3BwhiteSpace%3Dwrap%3Bhtml%3D1%3B%22%20vertex%3D%221%22%20parent%3D%221%22%3E%3CmxGeometry%20x%3D%221772%22%20y%3D%22522%22%20width%3D%2248%22%20height%3D%2226%22%20as%3D%22geometry%22%2F%3E%3C%2FmxCell%3E%3C%2Froot%3E%3C%2FmxGraphModel%3E&lt;/span&gt;" style="text;whiteSpace=wrap;html=1;" vertex="1" parent="1">
          <mxGeometry x="1940" y="553" width="48" height="26" as="geometry" />
        </mxCell>
        <mxCell id="Xy0spjIBbxIXqmK404P5-276" value="&lt;span style=&quot;color: rgb(44, 62, 80); font-family: &amp;quot;DM Sans&amp;quot;, Avenir, Helvetica, Arial, sans-serif; font-size: 14px; font-style: normal; font-variant-ligatures: normal; font-variant-caps: normal; font-weight: 400; letter-spacing: normal; orphans: 2; text-align: left; text-indent: 0px; text-transform: none; widows: 2; word-spacing: 0px; -webkit-text-stroke-width: 0px; background-color: rgb(248, 249, 250); text-decoration-thickness: initial; text-decoration-style: initial; text-decoration-color: initial; float: none; display: inline !important;&quot;&gt;K147E&lt;/span&gt;" style="text;whiteSpace=wrap;html=1;fontSize=14;" vertex="1" parent="1">
          <mxGeometry x="1980" y="630" width="48" height="26" as="geometry" />
        </mxCell>
        <mxCell id="Xy0spjIBbxIXqmK404P5-277" value="F486P&lt;font color=&quot;#ff00ff&quot; style=&quot;font-size: 13px;&quot;&gt;@&lt;/font&gt;&lt;font color=&quot;#0000ff&quot; style=&quot;font-size: 13px;&quot;&gt;@&lt;/font&gt;" style="text;html=1;align=center;verticalAlign=middle;resizable=0;points=[];autosize=1;strokeColor=none;fillColor=none;fontSize=13;fontFamily=Helvetica;fontColor=#000000;" vertex="1" parent="1">
          <mxGeometry x="647.5" y="1125" width="90" height="30" as="geometry" />
        </mxCell>
        <mxCell id="Xy0spjIBbxIXqmK404P5-278" value="" style="edgeStyle=orthogonalEdgeStyle;rounded=0;orthogonalLoop=1;jettySize=auto;html=1;fontSize=14;fontColor=#000000;" edge="1" parent="1" source="Xy0spjIBbxIXqmK404P5-279" target="Xy0spjIBbxIXqmK404P5-281">
          <mxGeometry relative="1" as="geometry" />
        </mxCell>
        <mxCell id="Xy0spjIBbxIXqmK404P5-279" value="XBB.1.9" style="rounded=0;whiteSpace=wrap;html=1;fillColor=#bac8d3;strokeColor=#23445d;fontFamily=Helvetica;fontSize=14;" vertex="1" parent="1">
          <mxGeometry x="671.5" y="1095" width="120" height="30" as="geometry" />
        </mxCell>
        <mxCell id="Xy0spjIBbxIXqmK404P5-280" value="" style="edgeStyle=orthogonalEdgeStyle;rounded=0;orthogonalLoop=1;jettySize=auto;html=1;fontFamily=Helvetica;fontSize=14;fontColor=#000000;exitX=1;exitY=0.5;exitDx=0;exitDy=0;entryX=1;entryY=0.5;entryDx=0;entryDy=0;" edge="1" parent="1" source="Xy0spjIBbxIXqmK404P5-113" target="Xy0spjIBbxIXqmK404P5-279">
          <mxGeometry relative="1" as="geometry">
            <mxPoint x="801.5000000000005" y="943" as="sourcePoint" />
            <mxPoint x="801.5000000000005" y="1120" as="targetPoint" />
            <Array as="points">
              <mxPoint x="810" y="993" />
              <mxPoint x="810" y="1110" />
            </Array>
          </mxGeometry>
        </mxCell>
        <mxCell id="Xy0spjIBbxIXqmK404P5-281" value="XBB.1.9.1" style="rounded=0;whiteSpace=wrap;html=1;fillColor=#bac8d3;strokeColor=#23445d;fontFamily=Helvetica;fontSize=14;" vertex="1" parent="1">
          <mxGeometry x="671.5" y="1155" width="120" height="30" as="geometry" />
        </mxCell>
        <mxCell id="Xy0spjIBbxIXqmK404P5-282" value="BQ.1.1.31" style="rounded=0;whiteSpace=wrap;html=1;fillColor=#d5e8d4;strokeColor=#82b366;fontFamily=Helvetica;fontSize=14;" vertex="1" parent="1">
          <mxGeometry x="1617.5" y="985" width="120" height="30" as="geometry" />
        </mxCell>
        <mxCell id="Xy0spjIBbxIXqmK404P5-283" value="S256L" style="text;html=1;strokeColor=none;fillColor=none;align=left;verticalAlign=middle;whiteSpace=wrap;rounded=0;fontSize=13;fontFamily=Helvetica;" vertex="1" parent="1">
          <mxGeometry x="1562.5" y="980" width="60" height="20" as="geometry" />
        </mxCell>
      </root>
    </mxGraphModel>
  </diagram>
</mxfile>
